<svg width="37" height="37" viewBox="0 0 37 37" fill="none" xmlns="http://www.w3.org/2000/svg">
<g filter="url(#filter0_b_400_1895)">
<rect width="36.114" height="36.114" rx="18.057" fill="#48F0A4"/>
</g>
<path d="M18.0013 26.9587C13.0596 26.9587 9.04297 22.942 9.04297 18.0003C9.04297 13.0587 13.0596 9.04199 18.0013 9.04199C22.943 9.04199 26.9596 13.0587 26.9596 18.0003C26.9596 22.942 22.943 26.9587 18.0013 26.9587Z" fill="white"/>
<path d="M18 19.4587C17.6583 19.4587 17.375 19.1753 17.375 18.8337V14.667C17.375 14.3253 17.6583 14.042 18 14.042C18.3417 14.042 18.625 14.3253 18.625 14.667V18.8337C18.625 19.1753 18.3417 19.4587 18 19.4587Z" fill="#48F0A4"/>
<path d="M18.0013 22.1693C17.893 22.1693 17.7846 22.1443 17.6846 22.1027C17.5846 22.061 17.493 22.0027 17.4096 21.9277C17.3346 21.8443 17.2763 21.761 17.2346 21.6527C17.193 21.5527 17.168 21.4443 17.168 21.336C17.168 21.2277 17.193 21.1193 17.2346 21.0193C17.2763 20.9193 17.3346 20.8277 17.4096 20.7443C17.493 20.6693 17.5846 20.611 17.6846 20.5693C17.8846 20.486 18.118 20.486 18.318 20.5693C18.418 20.611 18.5096 20.6693 18.593 20.7443C18.668 20.8277 18.7263 20.9193 18.768 21.0193C18.8096 21.1193 18.8346 21.2277 18.8346 21.336C18.8346 21.4443 18.8096 21.5527 18.768 21.6527C18.7263 21.761 18.668 21.8443 18.593 21.9277C18.5096 22.0027 18.418 22.061 18.318 22.1027C18.218 22.1443 18.1096 22.1693 18.0013 22.1693Z" fill="#48F0A4"/>
<defs>
<filter id="filter0_b_400_1895" x="-12.56" y="-12.56" width="61.2333" height="61.2343" filterUnits="userSpaceOnUse" color-interpolation-filters="sRGB">
<feFlood flood-opacity="0" result="BackgroundImageFix"/>
<feGaussianBlur in="BackgroundImageFix" stdDeviation="6.28"/>
<feComposite in2="SourceAlpha" operator="in" result="effect1_backgroundBlur_400_1895"/>
<feBlend mode="normal" in="SourceGraphic" in2="effect1_backgroundBlur_400_1895" result="shape"/>
</filter>
</defs>
</svg>
