<svg width="11" height="11" viewBox="0 0 11 11" fill="none" xmlns="http://www.w3.org/2000/svg">
<path fill-rule="evenodd" clip-rule="evenodd" d="M5.50974 0.774273C4.56147 0.872517 3.66348 1.23401 2.89927 1.82513C2.68241 1.99287 2.21872 2.45646 2.05093 2.67328C1.74305 3.07115 1.44666 3.6013 1.28105 4.05047C1.18837 4.30184 1.07137 4.76828 1.02585 5.06793C0.975807 5.39721 0.975749 6.12716 1.02573 6.45715C1.07049 6.7527 1.18882 7.22251 1.28231 7.47588C1.44944 7.92886 1.74312 8.45442 2.05115 8.85179C2.21034 9.05718 2.65755 9.50936 2.85788 9.6675C3.25819 9.9835 3.82009 10.301 4.2755 10.4686C4.5299 10.5622 4.9999 10.6804 5.29446 10.7248C5.5837 10.7684 6.33497 10.7749 6.60571 10.7361C7.54893 10.6009 8.34351 10.2681 9.07918 9.70022C9.2823 9.54341 9.73437 9.09616 9.89489 8.89318C10.2104 8.49427 10.5286 7.93152 10.6963 7.47588C10.7898 7.22192 10.9081 6.75205 10.9527 6.45715C10.9794 6.28089 10.9883 6.10771 10.9883 5.76254C10.9883 5.41736 10.9794 5.24418 10.9527 5.06793C10.908 4.77237 10.7896 4.30256 10.6961 4.0492C10.5253 3.58629 10.2136 3.03485 9.89489 2.6319C9.73437 2.42891 9.2823 1.98166 9.07918 1.82486C8.36451 1.27316 7.58791 0.940393 6.69378 0.802762C6.44779 0.764881 5.76001 0.748348 5.50974 0.774273ZM5.57205 1.37475C5.56738 1.38283 5.42572 1.80977 5.25726 2.32351L4.95093 3.25759L4.06588 2.81541C3.57909 2.5722 3.17777 2.37043 3.17407 2.36701C3.16372 2.35748 3.3898 2.18525 3.57891 2.05862C3.79562 1.91349 4.27857 1.67519 4.53276 1.58795C4.90735 1.45937 5.60603 1.31605 5.57205 1.37475ZM6.77206 1.41198C7.41923 1.51803 8.14404 1.84094 8.69005 2.26643C8.75665 2.31834 8.8081 2.36358 8.80438 2.36701C8.80068 2.37043 8.39936 2.5722 7.91256 2.81541L7.02746 3.25761L6.72108 2.32353C6.55257 1.80977 6.41018 1.38164 6.40466 1.37211C6.39411 1.35387 6.46339 1.36139 6.77206 1.41198ZM6.34021 3.04279C6.52788 3.61316 6.68425 4.07982 6.68767 4.07982C6.69112 4.07982 7.13428 3.85966 7.67248 3.59058L8.65103 3.10134L8.16167 4.07966C7.89254 4.61774 7.67232 5.0608 7.67232 5.06425C7.67232 5.06767 8.13909 5.22401 8.70958 5.41163C9.28007 5.59925 9.74684 5.75716 9.74684 5.76254C9.74684 5.76792 9.28007 5.92582 8.70958 6.11344C8.13909 6.30106 7.67232 6.4574 7.67232 6.46082C7.67232 6.46427 7.89254 6.90733 8.16167 7.44541L8.65103 8.42374L7.67248 7.9345C7.13428 7.66542 6.69114 7.44525 6.68771 7.44525C6.68429 7.44525 6.52792 7.9119 6.34025 8.48222C6.15257 9.05255 5.99461 9.51921 5.98923 9.51925C5.98384 9.51928 5.82591 9.05264 5.63824 8.48228C5.45058 7.91192 5.29421 7.44525 5.29078 7.44525C5.28734 7.44525 4.84417 7.66542 4.30597 7.9345L3.32743 8.42374L3.81678 7.44541C4.08592 6.90733 4.30613 6.46458 4.30613 6.46153C4.30613 6.45848 3.83964 6.30216 3.26946 6.11415C2.6993 5.92615 2.23281 5.76792 2.23281 5.76254C2.23281 5.75716 2.6993 5.59892 3.26946 5.41093C3.83964 5.22291 4.30613 5.0666 4.30613 5.06354C4.30613 5.06049 4.08592 4.61774 3.81678 4.07966L3.32743 3.10134L4.30597 3.59058C4.84417 3.85966 5.28734 4.07982 5.29078 4.07982C5.29421 4.07982 5.45058 3.61316 5.63824 3.04279C5.82591 2.47243 5.98384 2.00577 5.98923 2.00577C5.99461 2.00577 6.15255 2.47243 6.34021 3.04279ZM3.04144 3.83962L3.48374 4.72451L2.53964 5.03527C2.0204 5.20618 1.59268 5.34366 1.58914 5.34078C1.57585 5.32994 1.6477 4.90365 1.69584 4.70767C1.83841 4.12738 2.1274 3.53043 2.49234 3.06232C2.54426 2.99574 2.58951 2.9443 2.59293 2.94801C2.59636 2.95171 2.79817 3.35294 3.04144 3.83962ZM9.54966 3.14769C9.89153 3.61001 10.146 4.15165 10.2826 4.70767C10.3306 4.90318 10.4027 5.33033 10.3893 5.34037C10.3858 5.34301 9.95823 5.20524 9.43919 5.03421L8.4955 4.72326L8.93934 3.83549C9.18347 3.34721 9.3909 2.95247 9.40032 2.95831C9.40973 2.96412 9.47694 3.04935 9.54966 3.14769ZM5.69566 4.32393C5.11233 4.45448 4.67005 4.89903 4.55233 5.47311C4.36161 6.40312 5.12206 7.28207 6.06712 7.22392C6.4949 7.1976 6.90914 6.97611 7.15383 6.64285C7.233 6.53502 7.55627 5.97262 7.54535 5.9617C7.54151 5.95787 7.3833 5.97886 7.19374 6.00835C6.89195 6.05531 6.83608 6.05907 6.74459 6.0386C6.29622 5.93828 6.13139 5.37819 6.45721 5.06208C6.50521 5.01551 6.65607 4.92282 6.83168 4.83201C6.99341 4.74838 7.11882 4.67305 7.11037 4.66462C7.08167 4.63601 6.52807 4.39768 6.39037 4.35465C6.21106 4.29861 5.87513 4.28374 5.69566 4.32393ZM5.82176 4.93585C5.65879 5.30576 5.65969 5.65938 5.82446 5.99405C5.91192 6.17169 6.09669 6.37205 6.26459 6.47131L6.38783 6.5442L6.31085 6.5765C5.99567 6.70879 5.62286 6.63066 5.37188 6.37974C4.92408 5.93204 5.07926 5.18159 5.66913 4.94231C5.79295 4.89206 5.84196 4.89001 5.82176 4.93585ZM2.54944 6.49423L3.48374 6.80054L3.04144 7.68543C2.79817 8.17213 2.59636 8.57336 2.59293 8.57706C2.5834 8.58741 2.41114 8.36138 2.28447 8.17231C2.13932 7.95565 1.90096 7.47281 1.8137 7.21868C1.72764 6.96807 1.65421 6.66919 1.61583 6.41326C1.58143 6.18384 1.58039 6.16805 1.60045 6.17952C1.60853 6.18414 2.03557 6.32576 2.54944 6.49423ZM10.3639 6.40195C10.3218 6.67559 10.2497 6.97126 10.1648 7.21868C10.0775 7.47281 9.83914 7.95565 9.69398 8.17231C9.56732 8.36138 9.39505 8.58741 9.38552 8.57706C9.3821 8.57336 9.18042 8.17242 8.93735 7.6861L8.49536 6.80185L9.43913 6.49088C9.95821 6.31985 10.3859 6.18222 10.3897 6.18507C10.3934 6.18791 10.3818 6.28551 10.3639 6.40195ZM5.26446 9.21992C5.43382 9.73434 5.5701 10.1581 5.56728 10.1616C5.55663 10.1749 5.13002 10.1031 4.93412 10.055C4.35463 9.91265 3.75523 9.6224 3.28643 9.25711L3.16338 9.16122L4.05278 8.71624C4.54196 8.4715 4.94541 8.27427 4.94935 8.27795C4.95328 8.28163 5.09509 8.70551 5.26446 9.21992ZM8.80438 9.15807C8.81474 9.1676 8.58865 9.33982 8.39954 9.46645C8.18283 9.61158 7.69988 9.84988 7.44569 9.93713C7.33717 9.97436 7.15663 10.0271 7.04449 10.0543C6.84117 10.1035 6.42204 10.1748 6.41143 10.162C6.40836 10.1583 6.54571 9.73046 6.71666 9.21135L7.02748 8.26746L7.91258 8.70966C8.39936 8.95287 8.80068 9.15464 8.80438 9.15807Z" fill="black"/>
</svg>
