<svg width="20" height="14" viewBox="0 0 20 14" fill="none" xmlns="http://www.w3.org/2000/svg">
<path fill-rule="evenodd" clip-rule="evenodd" d="M1.41164 0.026832C0.741149 0.119029 0.171188 0.526351 0.0412444 1.00621C-0.0137481 1.2092 -0.0137481 10.2996 0.0412444 10.5026C0.174273 10.9938 0.740758 11.3905 1.44222 11.4836C1.57162 11.5008 2.62363 11.5116 4.17845 11.5116H6.70443L6.79391 12.0517C6.94628 12.9716 6.97842 13.092 7.12918 13.3069C7.27791 13.519 7.61497 13.7651 7.89275 13.8643C8.27781 14.0019 8.18345 13.9996 13.4415 14C16.6177 14.0003 18.4217 13.9906 18.5578 13.9725C19.2592 13.8793 19.8257 13.4826 19.9588 12.9914C20.0137 12.7884 20.0137 3.69804 19.9588 3.49505C19.843 3.06773 19.4402 2.73437 18.831 2.56179L18.6121 2.49976L14.1995 2.48608L9.78698 2.47241L9.66075 1.76131C9.59131 1.37021 9.51542 0.996387 9.4921 0.930611C9.38766 0.636243 9.01428 0.2956 8.63933 0.152724C8.23286 -0.00221366 8.23344 -0.00218631 4.76634 0.000630731C3.0156 0.00205293 1.50601 0.0138407 1.41164 0.026832ZM8.11608 0.89511C8.18622 0.930146 8.27137 0.996415 8.30531 1.04236C8.34816 1.10037 8.62249 2.56603 9.20202 5.83328C9.6613 8.42233 10.0459 10.5745 10.0566 10.6159L10.0762 10.6911H5.8574C1.70633 10.6911 1.63618 10.6902 1.48452 10.636C1.38528 10.6006 1.30232 10.5425 1.2517 10.473C1.17382 10.3661 1.17308 10.3213 1.17308 5.7544C1.17308 1.18931 1.17386 1.14268 1.25163 1.03594C1.29947 0.970268 1.38723 0.906926 1.4762 0.873887C1.61876 0.82091 1.6977 0.819789 4.8054 0.825532L7.98856 0.831412L8.11608 0.89511ZM4.49294 2.93911C4.2086 3.02225 4.22141 2.9899 3.56975 5.26798C3.23971 6.4216 2.96971 7.39425 2.96971 7.42939C2.96971 7.61797 3.27225 7.81932 3.55557 7.81932C3.74613 7.81932 3.97465 7.7225 4.05683 7.607C4.09678 7.55077 4.21372 7.20633 4.31671 6.84156L4.50392 6.17832H5.31314H6.12237L6.30957 6.84156C6.41256 7.20633 6.5295 7.55077 6.56945 7.607C6.65163 7.7225 6.88015 7.81932 7.07071 7.81932C7.35403 7.81932 7.65657 7.61797 7.65657 7.42939C7.65657 7.39425 7.38657 6.4216 7.05653 5.26798C6.40147 2.97811 6.41865 3.02091 6.1228 2.93774C5.917 2.87987 4.69201 2.88091 4.49294 2.93911ZM18.5155 3.36164C18.6147 3.39708 18.6977 3.45517 18.7483 3.52467C18.8262 3.63158 18.8269 3.6763 18.8269 8.24324C18.8269 12.8102 18.8262 12.8549 18.7483 12.9618C18.6976 13.0314 18.6147 13.0894 18.5152 13.125C18.3625 13.1795 18.3072 13.18 13.6589 13.1732L8.95706 13.1662L10.104 12.2369C10.8784 11.6096 11.2631 11.2771 11.2881 11.2138C11.3169 11.1406 11.1746 10.2708 10.6435 7.27478C10.2686 5.15998 9.95528 3.40195 9.94727 3.36812L9.9327 3.30658H14.147C18.2937 3.30658 18.3638 3.30746 18.5155 3.36164ZM5.65309 4.53733L5.88736 5.35783H5.31314H4.73892L4.97319 4.53733L5.20745 3.71683H5.31314H5.41883L5.65309 4.53733ZM14.4041 5.41422C14.1796 5.49723 14.101 5.6313 14.101 5.93108V6.17832H13.1621C12.2981 6.17832 12.2108 6.18273 12.069 6.23338C11.8957 6.2953 11.7576 6.45286 11.7576 6.58857C11.7576 6.79941 12.0465 6.99882 12.352 6.99882C12.4758 6.99882 12.4845 7.00607 12.5744 7.18343C12.8269 7.68137 13.226 8.20233 13.6588 8.59879L13.8679 8.79024L13.6817 8.90891C13.5794 8.9742 13.2656 9.15632 12.9844 9.31367C12.6492 9.50126 12.4509 9.63254 12.4083 9.69506C12.1744 10.0387 12.6987 10.4082 13.1753 10.2356C13.3093 10.1871 13.7977 9.91979 14.3337 9.60166C14.5154 9.49385 14.6743 9.40562 14.6869 9.40562C14.6994 9.40562 14.8584 9.49385 15.0401 9.60166C15.576 9.91979 16.0644 10.1871 16.1984 10.2356C16.5597 10.3664 17.0303 10.1611 17.0303 9.87259C17.0303 9.70841 16.915 9.60784 16.3893 9.31367C16.1081 9.15632 15.7944 8.9742 15.692 8.90891L15.5058 8.79024L15.7149 8.59879C16.1477 8.20233 16.5468 7.68137 16.7993 7.18343C16.8892 7.00607 16.898 6.99882 17.0217 6.99882C17.3272 6.99882 17.6161 6.79941 17.6161 6.58857C17.6161 6.45286 17.478 6.2953 17.3047 6.23338C17.1629 6.18273 17.0756 6.17832 16.2117 6.17832H15.2727V5.93108C15.2727 5.62643 15.1944 5.49619 14.9613 5.41288C14.7688 5.34415 14.5926 5.34456 14.4041 5.41422ZM15.6237 7.03301C15.6216 7.15931 14.7884 8.17487 14.6869 8.17487C14.5853 8.17487 13.7521 7.15931 13.75 7.03301C13.7496 7.00659 13.9627 6.99882 14.6869 6.99882C15.411 6.99882 15.6241 7.00659 15.6237 7.03301ZM8.79887 12.0403C8.43912 12.331 8.12721 12.5715 8.10573 12.5745C8.07288 12.5792 7.90283 11.7761 7.89369 11.5731L7.89091 11.5116H8.67194H9.45297L8.79887 12.0403Z" fill="#071973"/>
</svg>
