<svg width="55" height="51" viewBox="0 0 55 51" fill="none" xmlns="http://www.w3.org/2000/svg">
<path d="M16.8891 23.0966C17.0186 22.9734 17.5075 22.4464 17.9629 22.0129C20.633 19.2865 27.5984 14.824 31.2441 13.4619C31.7978 13.243 33.1975 12.7798 33.9454 12.75C34.6621 12.75 35.3452 12.903 35.9971 13.2132C36.8097 13.6467 37.4616 14.3289 37.8188 15.1342C38.0488 15.6931 38.406 17.3655 38.406 17.3953C38.7632 19.2249 38.9596 22.1978 38.9596 25.483C38.9596 28.6131 38.7632 31.4649 38.4707 33.3221C38.4372 33.3519 38.08 35.4301 37.6893 36.142C36.9727 37.4425 35.5729 38.25 34.0749 38.25H33.9454C32.9698 38.2181 30.9182 37.4106 30.9182 37.3809C27.4689 36.0166 20.6643 31.773 17.9294 28.9531C17.9294 28.9531 17.1592 28.2285 16.8243 27.7759C16.3019 27.1256 16.043 26.3202 16.043 25.5149C16.043 24.616 16.3354 23.7787 16.8891 23.0966" fill="#232360"/>
</svg>
