<svg width="37" height="37" viewBox="0 0 37 37" fill="none" xmlns="http://www.w3.org/2000/svg">
<g filter="url(#filter0_b_400_1862)">
<rect width="36.114" height="36.114" rx="18.057" fill="#FB1919"/>
</g>
<path d="M18.0047 26.956C17.4464 26.956 16.8797 26.8143 16.3797 26.5226L11.4297 23.6643C10.4297 23.081 9.80469 22.006 9.80469 20.8476V15.1476C9.80469 13.9893 10.4297 12.9143 11.4297 12.331L16.3797 9.47266C17.3797 8.88932 18.6214 8.88932 19.6297 9.47266L24.5797 12.331C25.5797 12.9143 26.2047 13.9893 26.2047 15.1476V20.8476C26.2047 22.006 25.5797 23.081 24.5797 23.6643L19.6297 26.5226C19.1297 26.8143 18.5631 26.956 18.0047 26.956Z" fill="white"/>
<path d="M18.0013 22.3779C17.7763 22.3779 17.568 22.2946 17.4096 22.1363C17.3346 22.0529 17.2763 21.9613 17.2263 21.8613C17.1846 21.7613 17.168 21.6529 17.168 21.5446C17.168 21.3279 17.2596 21.1113 17.4096 20.9529C17.718 20.6446 18.2846 20.6446 18.593 20.9529C18.743 21.1113 18.8346 21.3279 18.8346 21.5446C18.8346 21.6529 18.8096 21.7613 18.768 21.8613C18.7263 21.9613 18.668 22.0529 18.593 22.1363C18.4346 22.2946 18.2263 22.3779 18.0013 22.3779Z" fill="#FB1919"/>
<path d="M18 19.458C17.6583 19.458 17.375 19.1747 17.375 18.833V14.458C17.375 14.1163 17.6583 13.833 18 13.833C18.3417 13.833 18.625 14.1163 18.625 14.458V18.833C18.625 19.1747 18.3417 19.458 18 19.458Z" fill="#FB1919"/>
<defs>
<filter id="filter0_b_400_1862" x="-12.56" y="-12.56" width="61.2333" height="61.2343" filterUnits="userSpaceOnUse" color-interpolation-filters="sRGB">
<feFlood flood-opacity="0" result="BackgroundImageFix"/>
<feGaussianBlur in="BackgroundImageFix" stdDeviation="6.28"/>
<feComposite in2="SourceAlpha" operator="in" result="effect1_backgroundBlur_400_1862"/>
<feBlend mode="normal" in="SourceGraphic" in2="effect1_backgroundBlur_400_1862" result="shape"/>
</filter>
</defs>
</svg>
