<svg width="29" height="31" viewBox="0 0 29 31" fill="none" xmlns="http://www.w3.org/2000/svg">
<path d="M26.5484 23.6769C26.5484 24.1419 26.4517 24.6198 26.2463 25.0848C26.0409 25.5498 25.7751 25.989 25.4246 26.4023C24.8326 27.0998 24.1801 27.6036 23.443 27.9265C22.718 28.2494 21.9326 28.4173 21.0867 28.4173C19.8542 28.4173 18.5371 28.1073 17.1476 27.4744C15.758 26.8415 14.3684 25.989 12.9909 24.9169C11.6013 23.8319 10.2842 22.6307 9.02755 21.3002C7.78297 19.9569 6.65922 18.549 5.6563 17.0765C4.66547 15.604 3.86797 14.1315 3.28797 12.6719C2.70797 11.1994 2.41797 9.79148 2.41797 8.44815C2.41797 7.56982 2.56297 6.73023 2.85297 5.95523C3.14297 5.16732 3.60214 4.44398 4.24255 3.79815C5.01589 2.9844 5.86172 2.58398 6.75589 2.58398C7.09422 2.58398 7.43255 2.66148 7.73464 2.81648C8.0488 2.97148 8.32672 3.20398 8.54422 3.53982L11.3476 7.76357C11.5651 8.08648 11.7221 8.38357 11.8309 8.66773C11.9396 8.93898 12.0001 9.21023 12.0001 9.45565C12.0001 9.76565 11.9155 10.0757 11.7463 10.3727C11.5892 10.6698 11.3596 10.9798 11.0696 11.2898L10.1513 12.3102C10.0184 12.4523 9.95797 12.6202 9.95797 12.8269C9.95797 12.9302 9.97005 13.0207 9.99422 13.124C10.0305 13.2273 10.0667 13.3048 10.0909 13.3823C10.3084 13.8086 10.683 14.364 11.2146 15.0357C11.7584 15.7073 12.3384 16.3919 12.9667 17.0765C13.6192 17.7611 14.2476 18.394 14.888 18.9752C15.5163 19.5436 16.0359 19.9311 16.4467 20.1636C16.5071 20.1894 16.5796 20.2281 16.6642 20.2669C16.7609 20.3056 16.8576 20.3186 16.9663 20.3186C17.1717 20.3186 17.3288 20.2411 17.4617 20.099L18.3801 19.1302C18.6821 18.8073 18.9721 18.5619 19.2501 18.4069C19.528 18.2261 19.8059 18.1357 20.108 18.1357C20.3376 18.1357 20.5792 18.1873 20.8451 18.3036C21.1109 18.4198 21.3888 18.5877 21.6909 18.8073L25.6905 21.8427C26.0046 22.0752 26.2221 22.3465 26.3551 22.6694C26.4759 22.9923 26.5484 23.3152 26.5484 23.6769Z" stroke="#071973" stroke-width="1.23776" stroke-miterlimit="10"/>
</svg>
