<svg width="40" height="40" viewBox="0 0 40 40" fill="none" xmlns="http://www.w3.org/2000/svg">
<g filter="url(#filter0_b_362_1990)">
<circle cx="20" cy="20" r="20" fill="white" fill-opacity="0.14"/>
</g>
<path d="M27.6417 24.6083C27.6417 24.9083 27.575 25.2167 27.4333 25.5167C27.2917 25.8167 27.1083 26.1 26.8667 26.3667C26.4583 26.8167 26.0083 27.1417 25.5 27.35C25 27.5583 24.4583 27.6667 23.875 27.6667C23.025 27.6667 22.1167 27.4667 21.1583 27.0583C20.2 26.65 19.2417 26.1 18.2917 25.4083C17.3333 24.7083 16.425 23.9333 15.5583 23.075C14.7 22.2083 13.925 21.3 13.2333 20.35C12.55 19.4 12 18.45 11.6 17.5083C11.2 16.5583 11 15.65 11 14.7833C11 14.2167 11.1 13.675 11.3 13.175C11.5 12.6667 11.8167 12.2 12.2583 11.7833C12.7917 11.2583 13.375 11 13.9917 11C14.225 11 14.4583 11.05 14.6667 11.15C14.8833 11.25 15.075 11.4 15.225 11.6167L17.1583 14.3417C17.3083 14.55 17.4167 14.7417 17.4917 14.925C17.5667 15.1 17.6083 15.275 17.6083 15.4333C17.6083 15.6333 17.55 15.8333 17.4333 16.025C17.325 16.2167 17.1667 16.4167 16.9667 16.6167L16.3333 17.275C16.2417 17.3667 16.2 17.475 16.2 17.6083C16.2 17.675 16.2083 17.7333 16.225 17.8C16.25 17.8667 16.275 17.9167 16.2917 17.9667C16.4417 18.2417 16.7 18.6 17.0667 19.0333C17.4417 19.4667 17.8417 19.9083 18.275 20.35C18.725 20.7917 19.1583 21.2 19.6 21.575C20.0333 21.9417 20.3917 22.1917 20.675 22.3417C20.7167 22.3583 20.7667 22.3833 20.825 22.4083C20.8917 22.4333 20.9583 22.4417 21.0333 22.4417C21.175 22.4417 21.2833 22.3917 21.375 22.3L22.0083 21.675C22.2167 21.4667 22.4167 21.3083 22.6083 21.2083C22.8 21.0917 22.9917 21.0333 23.2 21.0333C23.3583 21.0333 23.525 21.0667 23.7083 21.1417C23.8917 21.2167 24.0833 21.325 24.2917 21.4667L27.05 23.425C27.2667 23.575 27.4167 23.75 27.5083 23.9583C27.5917 24.1667 27.6417 24.375 27.6417 24.6083Z" stroke="white" stroke-miterlimit="10"/>
<defs>
<filter id="filter0_b_362_1990" x="-13" y="-13" width="66" height="66" filterUnits="userSpaceOnUse" color-interpolation-filters="sRGB">
<feFlood flood-opacity="0" result="BackgroundImageFix"/>
<feGaussianBlur in="BackgroundImageFix" stdDeviation="6.5"/>
<feComposite in2="SourceAlpha" operator="in" result="effect1_backgroundBlur_362_1990"/>
<feBlend mode="normal" in="SourceGraphic" in2="effect1_backgroundBlur_362_1990" result="shape"/>
</filter>
</defs>
</svg>
