<svg width="24" height="24" viewBox="0 0 24 24" fill="none" xmlns="http://www.w3.org/2000/svg">
<path d="M21 5.98047C17.67 5.65047 14.32 5.48047 10.98 5.48047C9 5.48047 7.02 5.58047 5.04 5.78047L3 5.98047" stroke="#FD5520" stroke-width="1.5" stroke-linecap="round" stroke-linejoin="round"/>
<path d="M8.5 4.97L8.72 3.66C8.88 2.71 9 2 10.69 2H13.31C15 2 15.13 2.75 15.28 3.67L15.5 4.97" stroke="#FD5520" stroke-width="1.5" stroke-linecap="round" stroke-linejoin="round"/>
<path fill-rule="evenodd" clip-rule="evenodd" d="M18.8484 9.13965L18.1984 19.2096C18.0884 20.7796 17.9984 21.9996 15.2084 21.9996H8.78844C5.99844 21.9996 5.90844 20.7796 5.79844 19.2096L5.14844 9.13965H18.8484ZM9.57812 16.5C9.57812 16.0858 9.91391 15.75 10.3281 15.75H13.6581C14.0723 15.75 14.4081 16.0858 14.4081 16.5C14.4081 16.9142 14.0723 17.25 13.6581 17.25H10.3281C9.91391 17.25 9.57812 16.9142 9.57812 16.5ZM9.5 11.75C9.08579 11.75 8.75 12.0858 8.75 12.5C8.75 12.9142 9.08579 13.25 9.5 13.25H14.5C14.9142 13.25 15.25 12.9142 15.25 12.5C15.25 12.0858 14.9142 11.75 14.5 11.75H9.5Z" fill="#FD5520"/>
</svg>
