<svg width="18" height="18" viewBox="0 0 18 18" fill="none" xmlns="http://www.w3.org/2000/svg">
<path fill-rule="evenodd" clip-rule="evenodd" d="M9.13258 1.87501L9.74517 1.22661C10.9555 -0.0519221 12.3789 -0.674139 14.2541 1.09023C16.1378 2.87165 15.5923 4.32917 14.382 5.6077L13.7691 6.25641C13.6449 6.14233 13.4842 6.06597 13.3035 6.04777C11.2979 5.84577 9.68557 4.32479 9.37607 2.33818C9.34735 2.15386 9.25849 1.99385 9.13258 1.87501ZM7.90083 3.17879L2.74737 8.63354C2.48314 8.91482 2.22743 9.46885 2.17629 9.85241L1.86092 12.614C1.75011 13.6113 2.46609 14.2932 3.45482 14.1227L6.19939 13.6539C6.58295 13.5857 7.11993 13.3044 7.38416 13.0146L12.5333 7.56439C10.2814 7.105 8.47948 5.40537 7.90083 3.17879Z" fill="#FBA424"/>
<path d="M1 16.9102H16.3423" stroke="#FBA424" stroke-width="1.61711" stroke-miterlimit="10" stroke-linecap="round" stroke-linejoin="round"/>
</svg>
