<svg width="37" height="37" viewBox="0 0 37 37" fill="none" xmlns="http://www.w3.org/2000/svg">
<g filter="url(#filter0_b_396_1837)">
<rect width="36.114" height="36.114" rx="18.057" fill="#718FF8"/>
</g>
<path d="M22.9984 13.967C22.9484 13.9587 22.8901 13.9587 22.8401 13.967C21.6901 13.9253 20.7734 12.9837 20.7734 11.817C20.7734 10.6253 21.7318 9.66699 22.9234 9.66699C24.1151 9.66699 25.0734 10.6337 25.0734 11.817C25.0651 12.9837 24.1484 13.9253 22.9984 13.967Z" fill="white"/>
<path d="M22.1383 20.0338C23.28 20.2255 24.5383 20.0255 25.4216 19.4338C26.5966 18.6505 26.5966 17.3671 25.4216 16.5838C24.53 15.9921 23.2549 15.7921 22.1133 15.9921" fill="white"/>
<path d="M12.9734 13.967C13.0234 13.9587 13.0818 13.9587 13.1318 13.967C14.2818 13.9253 15.1984 12.9837 15.1984 11.817C15.1984 10.6253 14.2401 9.66699 13.0484 9.66699C11.8568 9.66699 10.8984 10.6337 10.8984 11.817C10.9068 12.9837 11.8234 13.9253 12.9734 13.967Z" fill="white"/>
<path d="M13.8326 20.0338C12.6909 20.2255 11.4326 20.0255 10.5492 19.4338C9.37422 18.6505 9.37422 17.3671 10.5492 16.5838C11.4409 15.9921 12.7159 15.7921 13.8575 15.9921" fill="white"/>
<path d="M18.0023 20.1916C17.9523 20.1833 17.894 20.1833 17.844 20.1916C16.694 20.1499 15.7773 19.2083 15.7773 18.0416C15.7773 16.8499 16.7357 15.8916 17.9273 15.8916C19.119 15.8916 20.0773 16.8583 20.0773 18.0416C20.069 19.2083 19.1523 20.1583 18.0023 20.1916Z" fill="white"/>
<path d="M15.5766 22.8168C14.4016 23.6001 14.4016 24.8835 15.5766 25.6668C16.9099 26.5585 19.0932 26.5585 20.4266 25.6668C21.6016 24.8835 21.6016 23.6001 20.4266 22.8168C19.1016 21.9335 16.9099 21.9335 15.5766 22.8168Z" fill="white"/>
<defs>
<filter id="filter0_b_396_1837" x="-12.56" y="-12.56" width="61.2333" height="61.2343" filterUnits="userSpaceOnUse" color-interpolation-filters="sRGB">
<feFlood flood-opacity="0" result="BackgroundImageFix"/>
<feGaussianBlur in="BackgroundImageFix" stdDeviation="6.28"/>
<feComposite in2="SourceAlpha" operator="in" result="effect1_backgroundBlur_396_1837"/>
<feBlend mode="normal" in="SourceGraphic" in2="effect1_backgroundBlur_396_1837" result="shape"/>
</filter>
</defs>
</svg>
