<svg width="37" height="37" viewBox="0 0 37 37" fill="none" xmlns="http://www.w3.org/2000/svg">
<g filter="url(#filter0_b_400_1854)">
<rect width="36.114" height="36.114" rx="18.057" fill="#FB6565"/>
</g>
<path d="M18 26.9562C17.4167 26.9562 16.825 26.7312 16.3833 26.2895L14.9583 24.8812C14.6 24.5312 14.1333 24.3395 13.6333 24.3395H13C11.275 24.3395 9.875 22.9478 9.875 21.2395V12.1478C9.875 10.4395 11.275 9.04785 13 9.04785H23C24.725 9.04785 26.125 10.4395 26.125 12.1478V21.2395C26.125 22.9478 24.725 24.3395 23 24.3395H22.3667C21.8667 24.3395 21.3917 24.5312 21.0417 24.8812L19.6167 26.2895C19.175 26.7312 18.5833 26.9562 18 26.9562Z" fill="white"/>
<path d="M19.8607 21.4231H18.2107C17.8273 21.4231 17.269 21.3065 16.944 20.9815L15.6607 19.9898L16.4273 18.9981L17.769 20.0398C17.869 20.1148 18.0523 20.1648 18.2107 20.1648H19.8607C20.1107 20.1648 20.4107 19.9481 20.469 19.7315L21.519 16.5231C21.544 16.4565 21.569 16.3648 21.5273 16.2981C21.494 16.2481 21.4023 16.2148 21.294 16.2148H19.5607C19.2523 16.2148 18.9607 16.0815 18.7523 15.8482C18.5523 15.6149 18.4607 15.2982 18.5023 14.9815L18.719 13.5898C18.744 13.4815 18.669 13.3565 18.5773 13.3232C18.5023 13.2982 18.3773 13.3398 18.344 13.3815L16.569 16.0232L15.5273 15.3232L17.3023 12.6815C17.6523 12.1565 18.394 11.9148 18.994 12.1398C19.669 12.3648 20.1023 13.1148 19.9523 13.8148L19.7773 14.9565H21.294C21.819 14.9565 22.2773 15.1815 22.5523 15.5731C22.819 15.9565 22.8773 16.4481 22.7107 16.9231L21.6773 20.0731C21.4857 20.8148 20.6857 21.4231 19.8607 21.4231Z" fill="#FB6565"/>
<path d="M15.132 20.9493H14.6987C13.3987 20.9493 13.207 20.041 13.207 19.4993V15.2576C13.207 14.7159 13.3987 13.8076 14.6987 13.8076H15.132C16.432 13.8076 16.6237 14.7159 16.6237 15.2576V19.4993C16.6237 20.041 16.432 20.9493 15.132 20.9493ZM14.482 19.691C14.507 19.691 14.5737 19.6993 14.6987 19.6993H15.132C15.2654 19.6993 15.3404 19.6826 15.3654 19.6743C15.3654 19.6576 15.3737 19.6076 15.3737 19.4993V15.2576C15.3737 15.1493 15.3654 15.091 15.357 15.0743C15.3404 15.0743 15.2737 15.066 15.132 15.066H14.6987C14.5654 15.066 14.4904 15.0827 14.4654 15.091C14.4654 15.1077 14.457 15.1576 14.457 15.266V19.5077C14.457 19.6161 14.4654 19.6743 14.4737 19.6993C14.4737 19.691 14.482 19.691 14.482 19.691Z" fill="#FB6565"/>
<defs>
<filter id="filter0_b_400_1854" x="-12.56" y="-12.56" width="61.2333" height="61.2343" filterUnits="userSpaceOnUse" color-interpolation-filters="sRGB">
<feFlood flood-opacity="0" result="BackgroundImageFix"/>
<feGaussianBlur in="BackgroundImageFix" stdDeviation="6.28"/>
<feComposite in2="SourceAlpha" operator="in" result="effect1_backgroundBlur_400_1854"/>
<feBlend mode="normal" in="SourceGraphic" in2="effect1_backgroundBlur_400_1854" result="shape"/>
</filter>
</defs>
</svg>
