<svg width="76" height="12" viewBox="0 0 76 12" fill="none" xmlns="http://www.w3.org/2000/svg">
<g clip-path="url(#clip0_36_2054)">
<path d="M8.86804 11.1887C8.60774 11.1887 8.27378 11.1052 7.85632 10.8597L6.38785 9.99036C6.2356 9.90195 5.94092 9.90195 5.79358 9.99036L4.32021 10.8597C3.45092 11.3753 2.94014 11.1691 2.70931 11.0021C2.4834 10.8351 2.12978 10.4078 2.36061 9.42556L2.70931 7.9178C2.7486 7.76064 2.67002 7.49052 2.55215 7.37265L1.33416 6.15465C0.72516 5.54565 0.774273 5.02506 0.857764 4.76966C0.941256 4.51427 1.20646 4.06244 2.0512 3.92001L3.6179 3.65971C3.76524 3.63515 3.97642 3.47799 4.04027 3.34539L4.90956 1.61171C5.30246 0.820996 5.81814 0.703125 6.08826 0.703125C6.35838 0.703125 6.87406 0.820996 7.26697 1.61171L8.13135 3.34048C8.20011 3.47308 8.41129 3.63024 8.55863 3.6548L10.1253 3.9151C10.975 4.05752 11.2402 4.50936 11.3188 4.76475C11.3973 5.02015 11.4465 5.54074 10.8424 6.14974L9.62438 7.37265C9.50651 7.49052 9.43284 7.75573 9.46722 7.9178L9.81592 9.42556C10.0418 10.4078 9.69313 10.8351 9.46722 11.0021C9.34443 11.0905 9.14798 11.1887 8.86804 11.1887Z" fill="#FF9E00"/>
</g>
<g clip-path="url(#clip1_36_2054)">
<path d="M22.2899 11.1887C22.0296 11.1887 21.6957 11.1052 21.2782 10.8597L19.8097 9.99036C19.6575 9.90195 19.3628 9.90195 19.2155 9.99036L17.7421 10.8597C16.8728 11.3753 16.362 11.1691 16.1312 11.0021C15.9053 10.8351 15.5517 10.4078 15.7825 9.42556L16.1312 7.9178C16.1705 7.76064 16.0919 7.49052 15.974 7.37265L14.756 6.15465C14.147 5.54565 14.1961 5.02506 14.2796 4.76966C14.3631 4.51427 14.6283 4.06244 15.4731 3.92001L17.0398 3.65971C17.1871 3.63515 17.3983 3.47799 17.4621 3.34539L18.3314 1.61171C18.7243 0.820996 19.24 0.703125 19.5101 0.703125C19.7803 0.703125 20.2959 0.820996 20.6888 1.61171L21.5532 3.34048C21.622 3.47308 21.8332 3.63024 21.9805 3.6548L23.5472 3.9151C24.3969 4.05752 24.6621 4.50936 24.7406 4.76475C24.8192 5.02015 24.8683 5.54074 24.2642 6.14974L23.0463 7.37265C22.9284 7.49052 22.8547 7.75573 22.8891 7.9178L23.2378 9.42556C23.4637 10.4078 23.115 10.8351 22.8891 11.0021C22.7663 11.0905 22.5699 11.1887 22.2899 11.1887Z" fill="#FF9E00"/>
</g>
<g clip-path="url(#clip2_36_2054)">
<path d="M39.5165 11.1887C39.2562 11.1887 38.9222 11.1052 38.5048 10.8597L37.0363 9.99036C36.884 9.90195 36.5894 9.90195 36.442 9.99036L34.9686 10.8597C34.0994 11.3753 33.5886 11.1691 33.3578 11.0021C33.1318 10.8351 32.7782 10.4078 33.0091 9.42556L33.3578 7.9178C33.397 7.76064 33.3185 7.49052 33.2006 7.37265L31.9826 6.15465C31.3736 5.54565 31.4227 5.02506 31.5062 4.76966C31.5897 4.51427 31.8549 4.06244 32.6996 3.92001L34.2663 3.65971C34.4137 3.63515 34.6249 3.47799 34.6887 3.34539L35.558 1.61171C35.9509 0.820996 36.4666 0.703125 36.7367 0.703125C37.0068 0.703125 37.5225 0.820996 37.9154 1.61171L38.7798 3.34048C38.8485 3.47308 39.0597 3.63024 39.2071 3.6548L40.7738 3.9151C41.6234 4.05752 41.8886 4.50936 41.9672 4.76475C42.0458 5.02015 42.0949 5.54074 41.4908 6.14974L40.2728 7.37265C40.1549 7.49052 40.0813 7.75573 40.1157 7.9178L40.4644 9.42556C40.6903 10.4078 40.3416 10.8351 40.1157 11.0021C39.9929 11.0905 39.7964 11.1887 39.5165 11.1887Z" fill="#FF9E00"/>
</g>
<g clip-path="url(#clip3_36_2054)">
<path d="M56.0165 11.1887C55.7562 11.1887 55.4222 11.1052 55.0048 10.8597L53.5363 9.99036C53.384 9.90195 53.0894 9.90195 52.942 9.99036L51.4686 10.8597C50.5994 11.3753 50.0886 11.1691 49.8578 11.0021C49.6318 10.8351 49.2782 10.4078 49.5091 9.42556L49.8578 7.9178C49.897 7.76064 49.8185 7.49052 49.7006 7.37265L48.4826 6.15465C47.8736 5.54565 47.9227 5.02506 48.0062 4.76966C48.0897 4.51427 48.3549 4.06244 49.1996 3.92001L50.7663 3.65971C50.9137 3.63515 51.1249 3.47799 51.1887 3.34539L52.058 1.61171C52.4509 0.820996 52.9666 0.703125 53.2367 0.703125C53.5068 0.703125 54.0225 0.820996 54.4154 1.61171L55.2798 3.34048C55.3485 3.47308 55.5597 3.63024 55.7071 3.6548L57.2738 3.9151C58.1234 4.05752 58.3886 4.50936 58.4672 4.76475C58.5458 5.02015 58.5949 5.54074 57.9908 6.14974L56.7728 7.37265C56.6549 7.49052 56.5813 7.75573 56.6157 7.9178L56.9644 9.42556C57.1903 10.4078 56.8416 10.8351 56.6157 11.0021C56.4929 11.0905 56.2964 11.1887 56.0165 11.1887Z" fill="#FF9E00"/>
</g>
<path d="M71.2675 11.1211L71.268 11.1214C71.7123 11.3828 72.0873 11.483 72.3993 11.483C72.7387 11.483 72.9823 11.3628 73.1362 11.252L73.1362 11.252L73.1386 11.2503C73.2834 11.1432 73.4597 10.9578 73.5649 10.6556C73.6697 10.3545 73.6975 9.95569 73.5769 9.43132L73.5768 9.43104L73.2288 7.92598C73.2226 7.89479 73.2244 7.83005 73.2467 7.75182C73.2695 7.67182 73.3022 7.61804 73.3223 7.59794L73.3227 7.5976L74.5407 6.3747L74.541 6.37435C74.8699 6.04273 75.0335 5.72194 75.0979 5.43482C75.1621 5.14849 75.124 4.91214 75.0753 4.75402L74.85 4.82334L75.0753 4.75401C75.0256 4.59232 74.9189 4.37613 74.6994 4.18026C74.4793 3.98385 74.1578 3.81867 73.6956 3.74119L73.6952 3.74114L72.1286 3.48086C72.1066 3.47718 72.0519 3.45518 71.9868 3.40711C71.9231 3.36005 71.8844 3.31387 71.8724 3.29156L71.0093 1.5654C71.0093 1.56533 71.0093 1.56526 71.0092 1.56519C70.7961 1.13627 70.5406 0.872715 70.285 0.717865C70.0298 0.563293 69.7893 0.525978 69.6195 0.525978C69.4497 0.525978 69.2092 0.563293 68.9541 0.717865C68.6985 0.872696 68.443 1.1362 68.2299 1.56503C68.2298 1.56515 68.2298 1.56528 68.2297 1.5654L67.3608 3.29832L67.3608 3.29831L67.3591 3.30172C67.3505 3.31966 67.3151 3.36474 67.2509 3.41254C67.187 3.46011 67.1324 3.4821 67.1104 3.48577L65.5438 3.74605L65.5433 3.74614C65.0832 3.82371 64.7631 3.98904 64.5433 4.18517C64.3241 4.38073 64.217 4.59589 64.1649 4.755L64.1649 4.755C64.1126 4.91504 64.0731 5.15265 64.1375 5.43973C64.202 5.72756 64.3673 6.04853 64.6987 6.37994L65.9167 7.59794C65.9373 7.61851 65.9712 7.67409 65.9945 7.75457C66.018 7.83597 66.0174 7.89694 66.0119 7.91922L66.0118 7.91921L66.0109 7.92328L65.6624 9.43023C65.6623 9.43035 65.6623 9.43048 65.6623 9.4306C65.539 9.9553 65.5668 10.3546 65.6725 10.6561C65.7785 10.9587 65.9563 11.1437 66.1004 11.2503L66.1024 11.2517C66.2487 11.3575 66.4788 11.4714 66.7995 11.4811C67.1189 11.4907 67.5076 11.3963 67.9715 11.1211C67.9716 11.1211 67.9717 11.121 67.9717 11.121L69.4446 10.252L69.4461 10.2511C69.4691 10.2373 69.5317 10.2184 69.6201 10.2184C69.7072 10.2184 69.7726 10.2368 69.8001 10.2525C69.8003 10.2526 69.8005 10.2527 69.8007 10.2528L71.2675 11.1211Z" stroke="#0B154D" stroke-width="0.471482"/>
<defs>
<clipPath id="clip0_36_2054">
<path d="M0.195312 5.94822C0.195312 2.69331 2.83394 0.0546875 6.08884 0.0546875V0.0546875C9.34374 0.0546875 11.9824 2.69331 11.9824 5.94821V11.8417H0.195312V5.94822Z" fill="white"/>
</clipPath>
<clipPath id="clip1_36_2054">
<path d="M13.6172 5.94822C13.6172 2.69331 16.2558 0.0546875 19.5107 0.0546875V0.0546875C22.7656 0.0546875 25.4042 2.69331 25.4042 5.94821V11.8417H13.6172V5.94822Z" fill="white"/>
</clipPath>
<clipPath id="clip2_36_2054">
<path d="M30.8438 5.94822C30.8438 2.69331 33.4824 0.0546875 36.7373 0.0546875V0.0546875C39.9922 0.0546875 42.6308 2.69331 42.6308 5.94821V11.8417H30.8438V5.94822Z" fill="white"/>
</clipPath>
<clipPath id="clip3_36_2054">
<path d="M47.3438 5.94822C47.3438 2.69331 49.9824 0.0546875 53.2373 0.0546875V0.0546875C56.4922 0.0546875 59.1308 2.69331 59.1308 5.94821V11.8417H47.3438V5.94822Z" fill="white"/>
</clipPath>
</defs>
</svg>
