<svg width="31" height="31" viewBox="0 0 31 31" fill="none" xmlns="http://www.w3.org/2000/svg">
<path fill-rule="evenodd" clip-rule="evenodd" d="M5.93303 4.71094C4.85291 4.71094 3.97656 5.60202 3.97656 6.69894V7.86899C3.97656 8.68153 4.28555 9.46291 4.83826 10.0506L10.8954 16.4913L10.8981 16.4873C12.0675 17.6844 12.7254 19.3027 12.7254 20.9901V26.7049C12.7254 27.0868 13.1249 27.3306 13.4566 27.1505L16.906 25.2708C17.4268 24.9864 17.7517 24.4339 17.7517 23.834V20.9752C17.7517 19.2973 18.4003 17.6858 19.559 16.4913L25.6162 10.0506C26.1676 9.46291 26.4766 8.68153 26.4766 7.86899V6.69894C26.4766 5.60202 25.6015 4.71094 24.5214 4.71094H5.93303Z" fill="#071973"/>
</svg>
