<svg width="40" height="40" viewBox="0 0 40 40" fill="none" xmlns="http://www.w3.org/2000/svg">
<circle cx="20" cy="20" r="20" fill="url(#paint0_linear_83_11241)"/>
<path d="M26.4016 20V28H13.6016V20" stroke="white" stroke-width="1.5" stroke-linecap="round" stroke-linejoin="round"/>
<path d="M28 16H12V20H28V16Z" stroke="white" stroke-width="1.5" stroke-linecap="round" stroke-linejoin="round"/>
<path d="M20 28V16" stroke="white" stroke-width="1.5" stroke-linecap="round" stroke-linejoin="round"/>
<path d="M19.9984 16H16.3984C15.868 16 15.3593 15.7893 14.9842 15.4142C14.6092 15.0391 14.3984 14.5304 14.3984 14C14.3984 13.4696 14.6092 12.9609 14.9842 12.5858C15.3593 12.2107 15.868 12 16.3984 12C19.1984 12 19.9984 16 19.9984 16Z" stroke="white" stroke-width="1.5" stroke-linecap="round" stroke-linejoin="round"/>
<path d="M20 16H23.6C24.1304 16 24.6391 15.7893 25.0142 15.4142C25.3893 15.0391 25.6 14.5304 25.6 14C25.6 13.4696 25.3893 12.9609 25.0142 12.5858C24.6391 12.2107 24.1304 12 23.6 12C20.8 12 20 16 20 16Z" stroke="white" stroke-width="1.5" stroke-linecap="round" stroke-linejoin="round"/>
<defs>
<linearGradient id="paint0_linear_83_11241" x1="40" y1="1.66667" x2="-2.28484e-06" y2="40" gradientUnits="userSpaceOnUse">
<stop stop-color="#FA2189"/>
<stop offset="1" stop-color="#FF3131" stop-opacity="0.63"/>
</linearGradient>
</defs>
</svg>
