<svg width="37" height="37" viewBox="0 0 37 37" fill="none" xmlns="http://www.w3.org/2000/svg">
<g filter="url(#filter0_b_396_1835)">
<rect width="36.114" height="36.114" rx="18.057" fill="#0D7E85"/>
</g>
<path d="M15.5013 26.3337H20.5013C24.668 26.3337 26.3346 24.667 26.3346 20.5003V15.5003C26.3346 11.3337 24.668 9.66699 20.5013 9.66699H15.5013C11.3346 9.66699 9.66797 11.3337 9.66797 15.5003V20.5003C9.66797 24.667 11.3346 26.3337 15.5013 26.3337Z" fill="white"/>
<path d="M13.7344 23.1254V21.4004" stroke="#0D7E85" stroke-width="1.16667" stroke-linecap="round"/>
<path d="M18 23.1248V19.6748" stroke="#0D7E85" stroke-width="1.16667" stroke-linecap="round"/>
<path d="M22.2656 23.1247V17.9414" stroke="#0D7E85" stroke-width="1.16667" stroke-linecap="round"/>
<path d="M22.2677 12.875L21.8844 13.325C19.7594 15.8083 16.9094 17.5667 13.7344 18.3583" stroke="#0D7E85" stroke-width="1.16667" stroke-linecap="round"/>
<path d="M19.8242 12.875H22.2659V15.3083" stroke="#0D7E85" stroke-width="1.16667" stroke-linecap="round" stroke-linejoin="round"/>
<defs>
<filter id="filter0_b_396_1835" x="-12.56" y="-12.56" width="61.2333" height="61.2343" filterUnits="userSpaceOnUse" color-interpolation-filters="sRGB">
<feFlood flood-opacity="0" result="BackgroundImageFix"/>
<feGaussianBlur in="BackgroundImageFix" stdDeviation="6.28"/>
<feComposite in2="SourceAlpha" operator="in" result="effect1_backgroundBlur_396_1835"/>
<feBlend mode="normal" in="SourceGraphic" in2="effect1_backgroundBlur_396_1835" result="shape"/>
</filter>
</defs>
</svg>
