<svg width="62" height="62" viewBox="0 0 62 62" fill="none" xmlns="http://www.w3.org/2000/svg">
<circle cx="31.0859" cy="31.4746" r="30.5" fill="white" fill-opacity="0.2"/>
<path d="M35.5859 26.2746V25.9746C35.5859 23.7646 33.7959 21.9746 31.5859 21.9746C29.3759 21.9746 27.5859 23.7646 27.5859 25.9746V30.9746" stroke="white" stroke-width="1.5" stroke-linecap="round" stroke-linejoin="round"/>
<path d="M28.625 34.1646C29.355 34.9746 30.415 35.4746 31.585 35.4746C33.795 35.4746 35.585 33.6846 35.585 31.4746V30.9746" stroke="white" stroke-width="1.5" stroke-linecap="round" stroke-linejoin="round"/>
<path d="M26.3672 36.925C27.7372 38.195 29.5672 38.975 31.5872 38.975C35.8072 38.975 39.2372 35.545 39.2372 31.325V29.625" stroke="white" stroke-width="1.5" stroke-linecap="round" stroke-linejoin="round"/>
<path d="M23.9375 29.625V31.325C23.9375 32.385 24.1475 33.385 24.5375 34.305" stroke="white" stroke-width="1.5" stroke-linecap="round" stroke-linejoin="round"/>
<path d="M39.6556 22.8145L23.5156 38.9645" stroke="white" stroke-width="1.5" stroke-linecap="round" stroke-linejoin="round"/>
<path d="M30.5859 22.9746V25.9746" stroke="white" stroke-width="1.5" stroke-linecap="round" stroke-linejoin="round"/>
<path d="M31.5859 38.9746V41.9746" stroke="white" stroke-width="1.5" stroke-linecap="round" stroke-linejoin="round"/>
</svg>
