<svg width="135" height="79" viewBox="0 0 135 79" fill="none" xmlns="http://www.w3.org/2000/svg">
<path d="M12.8717 27.8516C4.43912 39.4701 -0.0695126 53.4747 0.000810303 67.8307L26.7246 67.6998C26.6821 59.0275 29.4057 50.5675 34.4998 43.5489L12.8717 27.8516Z" fill="#5C59F5"/>
<path d="M41.6255 5.15625C28.3718 10.6569 17.216 20.2382 9.77734 32.5094L32.6305 46.3627C37.1241 38.9498 43.8631 33.1619 51.8695 29.839L41.6255 5.15625Z" fill="#8CFDFD"/>
<path d="M70.9066 0.0859515C60.8092 -0.424079 50.7263 1.34064 41.4023 5.24978L51.7353 29.8955C57.3677 27.534 63.4587 26.4679 69.5584 26.7761L70.9066 0.0859515Z" fill="#93FE82"/>
<path d="M101.315 9.07972C91.6714 3.49785 80.7957 0.390232 69.6586 0.0341797L68.8047 26.7447C75.5325 26.9597 82.1023 28.837 87.9281 32.209L101.315 9.07972Z" fill="#FDF877"/>
<path d="M125.581 33.1061C119.703 23.1794 111.378 14.925 101.402 9.13086L87.9805 32.24C94.0069 35.7402 99.0357 40.7265 102.587 46.7231L125.581 33.1061Z" fill="#FAB371"/>
<path d="M135.001 67.5001C135.001 55.3074 131.699 43.3424 125.444 32.876L102.504 46.5841C106.282 52.9068 108.277 60.1347 108.277 67.5001H135.001Z" fill="#FF8888"/>
<path fill-rule="evenodd" clip-rule="evenodd" d="M46.8137 73.8451L96 25L51.2838 78.0185C50.1386 79.2608 48.2096 79.3336 46.9753 78.1811C45.7409 77.0287 45.6685 75.0874 46.8137 73.8451Z" fill="white"/>
</svg>
