<svg width="61" height="61" viewBox="0 0 61 61" fill="none" xmlns="http://www.w3.org/2000/svg">
<circle cx="30.5" cy="30.5" r="30.5" fill="#FF2626"/>
<path d="M40.97 37.33C40.97 37.69 40.89 38.06 40.72 38.42C40.55 38.78 40.33 39.12 40.04 39.44C39.55 39.98 39.01 40.37 38.4 40.62C37.8 40.87 37.15 41 36.45 41C35.43 41 34.34 40.76 33.19 40.27C32.04 39.78 30.89 39.12 29.75 38.29C28.6 37.45 27.51 36.52 26.47 35.49C25.44 34.45 24.51 33.36 23.68 32.22C22.86 31.08 22.2 29.94 21.72 28.81C21.24 27.67 21 26.58 21 25.54C21 24.86 21.12 24.21 21.36 23.61C21.6 23 21.98 22.44 22.51 21.94C23.15 21.31 23.85 21 24.59 21C24.87 21 25.15 21.06 25.4 21.18C25.66 21.3 25.89 21.48 26.07 21.74L28.39 25.01C28.57 25.26 28.7 25.49 28.79 25.71C28.88 25.92 28.93 26.13 28.93 26.32C28.93 26.56 28.86 26.8 28.72 27.03C28.59 27.26 28.4 27.5 28.16 27.74L27.4 28.53C27.29 28.64 27.24 28.77 27.24 28.93C27.24 29.01 27.25 29.08 27.27 29.16C27.3 29.24 27.33 29.3 27.35 29.36C27.53 29.69 27.84 30.12 28.28 30.64C28.73 31.16 29.21 31.69 29.73 32.22C30.27 32.75 30.79 33.24 31.32 33.69C31.84 34.13 32.27 34.43 32.61 34.61C32.66 34.63 32.72 34.66 32.79 34.69C32.87 34.72 32.95 34.73 33.04 34.73C33.21 34.73 33.34 34.67 33.45 34.56L34.21 33.81C34.46 33.56 34.7 33.37 34.93 33.25C35.16 33.11 35.39 33.04 35.64 33.04C35.83 33.04 36.03 33.08 36.25 33.17C36.47 33.26 36.7 33.39 36.95 33.56L40.26 35.91C40.52 36.09 40.7 36.3 40.81 36.55C40.91 36.8 40.97 37.05 40.97 37.33Z" fill="white"/>
</svg>
