<svg width="37" height="37" viewBox="0 0 37 37" fill="none" xmlns="http://www.w3.org/2000/svg">
<g filter="url(#filter0_b_401_2595)">
<rect y="0.65625" width="36.114" height="36.114" rx="18.057" fill="#DA13BA"/>
</g>
<path d="M9.66797 19.3891V17.9225C9.66797 17.0558 10.3763 16.3391 11.2513 16.3391C12.7596 16.3391 13.3763 15.2725 12.618 13.9641C12.1846 13.2141 12.443 12.2391 13.2013 11.8058L14.643 10.9808C15.3013 10.5891 16.1513 10.8225 16.543 11.4808L16.6346 11.6391C17.3846 12.9475 18.618 12.9475 19.3763 11.6391L19.468 11.4808C19.8596 10.8225 20.7096 10.5891 21.368 10.9808L22.8096 11.8058C23.568 12.2391 23.8263 13.2141 23.393 13.9641C22.6346 15.2725 23.2513 16.3391 24.7596 16.3391C25.6263 16.3391 26.343 17.0475 26.343 17.9225V19.3891C26.343 20.2558 25.6346 20.9725 24.7596 20.9725C23.2513 20.9725 22.6346 22.0391 23.393 23.3475C23.8263 24.1058 23.568 25.0725 22.8096 25.5058L21.368 26.3308C20.7096 26.7225 19.8596 26.4891 19.468 25.8308L19.3763 25.6725C18.6263 24.3641 17.393 24.3641 16.6346 25.6725L16.543 25.8308C16.1513 26.4891 15.3013 26.7225 14.643 26.3308L13.2013 25.5058C12.443 25.0725 12.1846 24.0975 12.618 23.3475C13.3763 22.0391 12.7596 20.9725 11.2513 20.9725C10.3763 20.9725 9.66797 20.2558 9.66797 19.3891Z" fill="white"/>
<path d="M18 21.1562C19.3807 21.1562 20.5 20.037 20.5 18.6562C20.5 17.2755 19.3807 16.1562 18 16.1562C16.6193 16.1562 15.5 17.2755 15.5 18.6562C15.5 20.037 16.6193 21.1562 18 21.1562Z" fill="#DA13BA"/>
<defs>
<filter id="filter0_b_401_2595" x="-12.56" y="-11.9038" width="61.2333" height="61.2343" filterUnits="userSpaceOnUse" color-interpolation-filters="sRGB">
<feFlood flood-opacity="0" result="BackgroundImageFix"/>
<feGaussianBlur in="BackgroundImageFix" stdDeviation="6.28"/>
<feComposite in2="SourceAlpha" operator="in" result="effect1_backgroundBlur_401_2595"/>
<feBlend mode="normal" in="SourceGraphic" in2="effect1_backgroundBlur_401_2595" result="shape"/>
</filter>
</defs>
</svg>
