<svg width="40" height="40" viewBox="0 0 40 40" fill="none" xmlns="http://www.w3.org/2000/svg">
<g filter="url(#filter0_b_396_1697)">
<circle cx="20" cy="20" r="20" fill="white" fill-opacity="0.14"/>
</g>
<path d="M20.5211 16.3766L21.0737 16.335L21.076 15.7808L21.0841 13.8717C21.0852 13.6242 21.0861 13.4096 21.0871 13.2237C21.6203 13.6583 22.335 14.2404 23.1068 14.8687L23.1068 14.8687L26.8138 17.8865L26.8138 17.8866C26.911 17.9657 27.0043 18.0421 27.0906 18.1132C26.9108 18.2624 26.697 18.4383 26.468 18.6256C25.8257 19.1506 24.1409 20.5283 22.7241 21.687C22.1081 22.1908 21.5394 22.6546 21.0928 23.0178C21.0921 22.8153 21.0917 22.5966 21.0917 22.3687V20.479V19.8359L20.4502 19.8805L20.3169 19.8897L20.3169 19.8897C18.5394 20.0132 16.8155 20.6509 15.3985 21.7111L15.3985 21.7111C14.5125 22.374 13.8133 23.1136 13.21 24.0272C12.9824 24.3719 12.8232 24.6514 12.6014 25.1266C12.6084 24.1604 12.6424 23.7857 12.7291 23.2776C12.8682 22.4624 13.0734 21.8389 13.4739 21.0287L12.9393 20.7644L13.4739 21.0287C14.1454 19.6703 15.1156 18.5744 16.3871 17.7389L16.0576 17.2374L16.3871 17.7389C17.5466 16.9769 18.9313 16.4965 20.2233 16.399C20.2233 16.399 20.2233 16.399 20.2233 16.399L20.5211 16.3766Z" stroke="white" stroke-width="1.2"/>
<defs>
<filter id="filter0_b_396_1697" x="-13" y="-13" width="66" height="66" filterUnits="userSpaceOnUse" color-interpolation-filters="sRGB">
<feFlood flood-opacity="0" result="BackgroundImageFix"/>
<feGaussianBlur in="BackgroundImageFix" stdDeviation="6.5"/>
<feComposite in2="SourceAlpha" operator="in" result="effect1_backgroundBlur_396_1697"/>
<feBlend mode="normal" in="SourceGraphic" in2="effect1_backgroundBlur_396_1697" result="shape"/>
</filter>
</defs>
</svg>
