<svg width="62" height="62" viewBox="0 0 62 62" fill="none" xmlns="http://www.w3.org/2000/svg">
<circle cx="31.2852" cy="31.4746" r="30.5" fill="white" fill-opacity="0.2"/>
<path d="M21.7852 29.9744V33.9744C21.7852 35.9744 22.7852 36.9744 24.7852 36.9744H26.2152C26.5852 36.9744 26.9552 37.0844 27.2752 37.2744L30.1952 39.1044C32.7152 40.6844 34.7852 39.5344 34.7852 36.5644V27.3844C34.7852 24.4044 32.7152 23.2644 30.1952 24.8444L27.2752 26.6744C26.9552 26.8644 26.5852 26.9744 26.2152 26.9744H24.7852C22.7852 26.9744 21.7852 27.9744 21.7852 29.9744Z" stroke="white" stroke-width="1.5"/>
<path d="M37.7852 27.9746C39.5652 30.3446 39.5652 33.6046 37.7852 35.9746" stroke="white" stroke-width="1.5" stroke-linecap="round" stroke-linejoin="round"/>
<path d="M39.6133 25.4746C42.5033 29.3246 42.5033 34.6246 39.6133 38.4746" stroke="white" stroke-width="1.5" stroke-linecap="round" stroke-linejoin="round"/>
</svg>
