<svg width="30" height="31" viewBox="0 0 30 31" fill="none" xmlns="http://www.w3.org/2000/svg">
<path d="M22.0751 29.2802C21.4126 29.2802 20.5626 29.0607 19.5001 28.4148L15.7626 26.1286C15.3751 25.8961 14.6251 25.8961 14.2501 26.1286L10.5001 28.4148C8.28765 29.7711 6.98765 29.2286 6.40015 28.7894C5.82515 28.3502 4.92515 27.2265 5.51265 24.6432L6.40015 20.6777C6.50015 20.2644 6.30015 19.554 6.00015 19.244L2.90015 16.0407C1.35015 14.439 1.47515 13.0698 1.68765 12.3981C1.90015 11.7265 2.57515 10.5381 4.72515 10.1635L8.71265 9.47896C9.08765 9.41437 9.62515 9.00104 9.78765 8.65229L12.0001 4.09271C13.0001 2.01312 14.3126 1.70312 15.0001 1.70312C15.6876 1.70312 17.0001 2.01312 18.0001 4.09271L20.2001 8.63938C20.3751 8.98813 20.9126 9.40146 21.2876 9.46604L25.2751 10.1506C27.4376 10.5252 28.1126 11.7135 28.3126 12.3852C28.5126 13.0569 28.6376 14.4261 27.1001 16.0277L24.0001 19.244C23.7001 19.554 23.5126 20.2515 23.6001 20.6777L24.4876 24.6432C25.0626 27.2265 24.1751 28.3502 23.6001 28.7894C23.2876 29.0219 22.7876 29.2802 22.0751 29.2802Z" fill="#FF9E00"/>
</svg>
