<svg width="13" height="14" viewBox="0 0 13 14" fill="none" xmlns="http://www.w3.org/2000/svg">
<path fill-rule="evenodd" clip-rule="evenodd" d="M5.8779 0.0175763C4.64515 0.155117 3.47776 0.661205 2.48429 1.48878C2.20237 1.72362 1.59957 2.37264 1.38145 2.67619C0.981193 3.2332 0.595897 3.97541 0.380605 4.60425C0.260111 4.95617 0.108018 5.60919 0.0488395 6.02869C-0.0162162 6.48969 -0.0162925 7.51162 0.0486868 7.9736C0.106873 8.38737 0.260696 9.04511 0.382234 9.39982C0.59951 10.034 0.981295 10.7698 1.38173 11.3261C1.58868 11.6136 2.17006 12.2467 2.43048 12.4681C2.95088 12.9105 3.68135 13.355 4.27339 13.5896C4.60411 13.7206 5.2151 13.8861 5.59803 13.9483C5.97404 14.0094 6.95069 14.0185 7.30266 13.9641C8.52884 13.7748 9.5618 13.309 10.5182 12.5139C10.7822 12.2944 11.3699 11.6682 11.5786 11.384C11.9888 10.8256 12.4024 10.0377 12.6205 9.39982C12.742 9.04429 12.8957 8.38647 12.9538 7.9736C12.9885 7.72684 13 7.48439 13 7.00114C13 6.5179 12.9885 6.27545 12.9538 6.02869C12.8956 5.61492 12.7418 4.95718 12.6202 4.60247C12.3982 3.9544 11.9929 3.18238 11.5786 2.61825C11.3699 2.33407 10.7822 1.70792 10.5182 1.48839C9.5891 0.716018 8.57952 0.250144 7.41715 0.0574606C7.09736 0.00442757 6.20325 -0.0187196 5.8779 0.0175763ZM5.9589 0.858243C5.95282 0.869556 5.76867 1.46727 5.54967 2.18651L5.15145 3.49423L4.00087 2.87517C3.36805 2.53467 2.84633 2.2522 2.84153 2.2474C2.82807 2.23406 3.12197 1.99295 3.36782 1.81566C3.64954 1.61248 4.27738 1.27886 4.60782 1.15672C5.09479 0.976718 6.00307 0.776064 5.9589 0.858243ZM7.51892 0.910372C8.36024 1.05884 9.30249 1.51091 10.0123 2.1066C10.0989 2.17927 10.1658 2.24261 10.1609 2.2474C10.1561 2.2522 9.63441 2.53467 9.00156 2.87517L7.85094 3.49425L7.45264 2.18653C7.23358 1.46727 7.04846 0.867885 7.04129 0.854545C7.02758 0.829015 7.11764 0.839534 7.51892 0.910372ZM6.95751 3.1935C7.20147 3.99201 7.40476 4.64534 7.40921 4.64534C7.41369 4.64534 7.9898 4.33711 8.68946 3.9604L9.96157 3.27546L9.32541 4.64512C8.97553 5.39843 8.68926 6.01872 8.68926 6.02354C8.68926 6.02833 9.29605 6.2472 10.0377 6.50988C10.7793 6.77255 11.3861 6.99361 11.3861 7.00114C11.3861 7.00868 10.7793 7.22974 10.0377 7.49241C9.29605 7.75508 8.68926 7.97396 8.68926 7.97875C8.68926 7.98357 8.97553 8.60386 9.32541 9.35717L9.96157 10.7268L8.68946 10.0419C7.9898 9.66518 7.41371 9.35695 7.40926 9.35695C7.40481 9.35695 7.20153 10.0102 6.95756 10.8087C6.71357 11.6072 6.50823 12.2605 6.50123 12.2605C6.49423 12.2606 6.28891 11.6073 6.04495 10.8088C5.80098 10.0103 5.5977 9.35695 5.59325 9.35695C5.58877 9.35695 5.01266 9.66518 4.313 10.0419L3.04089 10.7268L3.67705 9.35717C4.02693 8.60386 4.3132 7.98401 4.3132 7.97974C4.3132 7.97546 3.70676 7.75662 2.96553 7.4934C2.22432 7.23021 1.61788 7.00868 1.61788 7.00114C1.61788 6.99361 2.22432 6.77208 2.96553 6.50889C3.70676 6.24567 4.3132 6.02683 4.3132 6.02255C4.3132 6.01828 4.02693 5.39843 3.67705 4.64512L3.04089 3.27546L4.313 3.9604C5.01266 4.33711 5.58877 4.64534 5.59325 4.64534C5.5977 4.64534 5.80098 3.99201 6.04495 3.1935C6.28891 2.395 6.49423 1.74167 6.50123 1.74167C6.50823 1.74167 6.71354 2.395 6.95751 3.1935ZM2.6691 4.30906L3.2441 5.54791L2.01677 5.98297C1.34176 6.22225 0.785721 6.41471 0.781116 6.41069C0.763841 6.39551 0.857239 5.7987 0.919827 5.52433C1.10517 4.71193 1.48085 3.8762 1.95527 3.22084C2.02277 3.12762 2.08159 3.05561 2.08605 3.06081C2.0905 3.06599 2.35286 3.62771 2.6691 4.30906ZM11.1298 3.34036C11.5742 3.9876 11.905 4.7459 12.0826 5.52433C12.1451 5.79804 12.2387 6.39606 12.2213 6.41011C12.2167 6.41381 11.6609 6.22093 10.9862 5.98149L9.75938 5.54616L10.3364 4.30328C10.6537 3.61969 10.9234 3.06706 10.9356 3.07522C10.9479 3.08336 11.0353 3.20268 11.1298 3.34036ZM6.1196 4.98709C5.36127 5.16986 4.7863 5.79223 4.63326 6.59595C4.38533 7.89797 5.37391 9.12849 6.60249 9.04708C7.1586 9.01024 7.69711 8.70015 8.01522 8.23359C8.11813 8.08262 8.53838 7.29526 8.52419 7.27998C8.5192 7.27461 8.31353 7.304 8.06709 7.34528C7.67477 7.41103 7.60214 7.41629 7.4832 7.38763C6.90032 7.24719 6.68604 6.46306 7.1096 6.0205C7.17201 5.9553 7.36812 5.82554 7.59641 5.69841C7.80667 5.58133 7.9697 5.47587 7.95871 5.46406C7.92141 5.42401 7.20173 5.09034 7.02272 5.0301C6.78962 4.95165 6.3529 4.93083 6.1196 4.98709ZM6.28352 5.84379C6.07166 6.36165 6.07283 6.85673 6.28703 7.32526C6.40073 7.57396 6.64093 7.85447 6.8592 7.99343L7.01941 8.09547L6.91935 8.1407C6.5096 8.3259 6.02495 8.21652 5.69868 7.86523C5.11654 7.23845 5.31827 6.18782 6.0851 5.85283C6.24607 5.78248 6.30978 5.7796 6.28352 5.84379ZM2.02951 8.02551L3.2441 8.45435L2.6691 9.6932C2.35286 10.3746 2.0905 10.9363 2.08605 10.9415C2.07365 10.956 1.84971 10.6395 1.68505 10.3748C1.49635 10.0715 1.18649 9.39552 1.07304 9.03974C0.96117 8.68889 0.865711 8.27046 0.815819 7.91216C0.771092 7.59097 0.769743 7.56887 0.795822 7.58492C0.806329 7.59138 1.36148 7.78965 2.02951 8.02551ZM12.1883 7.89632C12.1336 8.27942 12.0399 8.69335 11.9294 9.03974C11.816 9.39552 11.5061 10.0715 11.3174 10.3748C11.1527 10.6395 10.9288 10.956 10.9164 10.9415C10.912 10.9363 10.6498 10.375 10.3338 9.69413L9.7592 8.45618L10.9861 8.02083C11.6609 7.78138 12.217 7.5887 12.2218 7.5927C12.2266 7.59667 12.2115 7.73331 12.1883 7.89632ZM5.55903 11.8415C5.77921 12.5617 5.95636 13.1549 5.9527 13.1599C5.93886 13.1785 5.38427 13.0779 5.12959 13.0105C4.37625 12.8113 3.59703 12.405 2.98759 11.8936L2.82763 11.7593L3.98385 11.1363C4.61978 10.7937 5.14427 10.5176 5.14938 10.5227C5.1545 10.5279 5.33885 11.1213 5.55903 11.8415ZM10.1609 11.7549C10.1744 11.7682 9.88048 12.0093 9.63464 12.1866C9.35292 12.3898 8.72508 12.7234 8.39464 12.8456C8.25356 12.8977 8.01886 12.9715 7.87307 13.0095C7.60875 13.0785 7.06388 13.1784 7.05009 13.1604C7.0461 13.1552 7.22465 12.5562 7.44689 11.8295L7.85096 10.508L9.00158 11.1271C9.63441 11.4676 10.1561 11.7501 10.1609 11.7549Z" fill="#071973"/>
</svg>
