<svg width="37" height="37" viewBox="0 0 37 37" fill="none" xmlns="http://www.w3.org/2000/svg">
<g filter="url(#filter0_b_396_1823)">
<rect width="36.114" height="36.114" rx="18.057" fill="#0D854F"/>
</g>
<path fill-rule="evenodd" clip-rule="evenodd" d="M10.3529 10.0541C10.1221 10.1542 10 10.337 10 10.5824C10 10.8312 10.1239 11.0136 10.3599 11.1122C10.4554 11.1521 10.6348 11.1606 11.3839 11.1606C12.0823 11.1606 12.2953 11.1696 12.3058 11.1996C12.3133 11.2211 12.6863 13.4113 13.1346 16.0667C13.583 18.7222 13.9637 20.9477 13.9807 21.0124C14.0188 21.1579 14.1776 21.3433 14.3121 21.3995C14.3956 21.4344 15.3317 21.4417 19.7089 21.4417C23.3746 21.4417 25.0317 21.4315 25.0926 21.4084C25.3054 21.328 25.4552 21.103 25.4552 20.8636C25.4552 20.6015 25.2944 20.3868 25.0468 20.3181C24.9691 20.2965 23.288 20.2857 19.9769 20.2856L15.0231 20.2854L14.9371 19.7776C14.8898 19.4984 14.8514 19.2452 14.8519 19.2151C14.8526 19.1634 15.0704 19.1604 18.9698 19.159C23.5612 19.1573 23.203 19.1749 23.3857 18.9417C23.5041 18.7907 25.4462 13.8854 25.4462 13.7376C25.4462 13.6128 25.3764 13.4263 25.2966 13.338C25.2672 13.3055 25.1909 13.2523 25.1272 13.2197C25.0147 13.1623 24.8448 13.1605 19.4163 13.1605C15.9619 13.1605 13.8214 13.1493 13.8214 13.1313C13.8214 13.0117 13.3415 10.3859 13.3078 10.3212C13.2479 10.2062 13.1377 10.1095 13.0016 10.0527C12.8315 9.98158 10.5173 9.98283 10.3529 10.0541ZM15.7276 22.2696C15.3847 22.347 15.0872 22.5156 14.8217 22.7828C14.5507 23.0557 14.4099 23.2987 14.3206 23.6478C14.2057 24.0972 14.2659 24.6001 14.4843 25.0139C14.6324 25.2944 14.9969 25.6475 15.2901 25.7942C16.2479 26.2737 17.3825 25.8873 17.8418 24.9251C18.104 24.376 18.0978 23.823 17.8235 23.2698C17.5128 22.6433 16.9273 22.2636 16.229 22.2356C16.0379 22.228 15.8578 22.2402 15.7276 22.2696ZM21.2076 22.2848C20.5249 22.4638 20.0098 22.9749 19.8367 23.6448C19.7746 23.885 19.7746 24.3416 19.8366 24.5823C19.9732 25.1123 20.3356 25.5545 20.8369 25.8029C21.9301 26.3444 23.2413 25.7083 23.5119 24.5049C23.5582 24.2993 23.5487 23.8595 23.4933 23.6448C23.2356 22.6458 22.1942 22.0262 21.2076 22.2848Z" fill="white"/>
<defs>
<filter id="filter0_b_396_1823" x="-12.56" y="-12.56" width="61.2333" height="61.2343" filterUnits="userSpaceOnUse" color-interpolation-filters="sRGB">
<feFlood flood-opacity="0" result="BackgroundImageFix"/>
<feGaussianBlur in="BackgroundImageFix" stdDeviation="6.28"/>
<feComposite in2="SourceAlpha" operator="in" result="effect1_backgroundBlur_396_1823"/>
<feBlend mode="normal" in="SourceGraphic" in2="effect1_backgroundBlur_396_1823" result="shape"/>
</filter>
</defs>
</svg>
