<svg width="20" height="20" viewBox="0 0 20 20" fill="none" xmlns="http://www.w3.org/2000/svg">
<path fill-rule="evenodd" clip-rule="evenodd" d="M7 20H13C18 20 20 18 20 13V7C20 2 18 0 13 0H7C2 0 0 2 0 7V13C0 18 2 20 7 20ZM4.25781 6.96094C4.25781 6.54672 4.5936 6.21094 5.00781 6.21094H9.24805V5.28027C9.24805 4.86606 9.58383 4.53027 9.99805 4.53027C10.4123 4.53027 10.748 4.86606 10.748 5.28027V6.21094H12.3231C12.3792 6.19753 12.4378 6.19043 12.498 6.19043C12.5583 6.19043 12.6168 6.19753 12.673 6.21094H14.9878C15.402 6.21094 15.7378 6.54672 15.7378 6.96094C15.7378 7.37515 15.402 7.71094 14.9878 7.71094H13.2148C13.066 9.42422 12.4263 10.9961 11.4395 12.2705C12.4279 13.3496 13.6672 13.9709 14.9973 13.9709C15.4115 13.9709 15.7473 14.3067 15.7473 14.7209C15.7473 15.1352 15.4115 15.4709 14.9973 15.4709C13.2069 15.4709 11.6246 14.6497 10.4172 13.3731C8.9709 14.6778 7.07826 15.4704 4.99805 15.4704C4.58383 15.4704 4.24805 15.1346 4.24805 14.7204C4.24805 14.3062 4.58383 13.9704 4.99805 13.9704C6.86152 13.9704 8.55993 13.1796 9.78696 11.8949C9.83609 11.8037 9.90503 11.7212 9.99285 11.6543C10.0045 11.6455 10.0162 11.637 10.0282 11.629C10.9419 10.5678 11.5515 9.21366 11.7082 7.71094H5.00781C4.5936 7.71094 4.25781 7.37515 4.25781 6.96094Z" fill="#071973"/>
</svg>
