<svg width="44" height="39" viewBox="0 0 44 39" fill="none" xmlns="http://www.w3.org/2000/svg">
<path d="M22.3057 17.1631C22.1081 17.1475 21.8844 17.1479 21.6763 17.1632C17.541 17.0277 14.3594 14.0352 14.3594 10.465C14.3594 6.8142 17.7079 3.75 21.9994 3.75C26.2728 3.75 29.6386 6.81414 29.6394 10.4637C29.622 14.0353 26.4392 17.027 22.3057 17.1631Z" stroke="url(#paint0_linear_5_27222)"/>
<path d="M31.226 24.0907L31.2252 24.0903C28.8094 22.6601 25.5803 21.9297 22.3179 21.9297C19.0561 21.9297 15.8175 22.6598 13.3826 24.0905C11.2596 25.3505 10.3008 26.9411 10.3008 28.4355C10.3008 29.9296 11.2593 31.5162 13.3823 32.7681L13.3833 32.7687C15.8086 34.207 19.0422 34.9413 22.3041 34.9413C25.5659 34.9413 28.7996 34.207 31.2248 32.7687L31.226 24.0907ZM31.226 24.0907C33.3489 25.3426 34.3074 26.9292 34.3074 28.4233M31.226 24.0907L34.3074 28.4233M34.3074 28.4233C34.3074 29.9178 33.3484 31.5087 31.2249 32.7687L34.3074 28.4233Z" stroke="url(#paint1_linear_5_27222)"/>
<defs>
<linearGradient id="paint0_linear_5_27222" x1="27.3401" y1="4.10826" x2="26.4273" y2="17.7283" gradientUnits="userSpaceOnUse">
<stop stop-color="#091E84"/>
<stop offset="1" stop-color="#031259"/>
</linearGradient>
<linearGradient id="paint1_linear_5_27222" x1="30.5076" y1="22.264" x2="29.9446" y2="35.5396" gradientUnits="userSpaceOnUse">
<stop stop-color="#091E84"/>
<stop offset="1" stop-color="#031259"/>
</linearGradient>
</defs>
</svg>
