<svg width="37" height="37" viewBox="0 0 37 37" fill="none" xmlns="http://www.w3.org/2000/svg">
<g filter="url(#filter0_b_396_1820)">
<rect width="36.114" height="36.114" rx="18.057" fill="#00A3FF"/>
</g>
<path fill-rule="evenodd" clip-rule="evenodd" d="M12.084 11.0334C11.1529 11.1535 10.3722 11.8328 10.0772 12.7796L10 13.0273V17.9975V22.9676L10.0772 23.2153C10.3789 24.1838 11.1494 24.841 12.1273 24.9639C12.5105 25.012 24.3284 25.012 24.7117 24.9639C25.6818 24.842 26.4432 24.1981 26.7599 23.2318C26.8327 23.0099 26.8362 22.9497 26.848 21.7223L26.8602 20.444L24.3781 20.4327C21.6207 20.4202 21.7665 20.4315 21.2633 20.1906C19.8406 19.5097 19.4389 17.65 20.4528 16.438C20.762 16.0685 21.2149 15.7754 21.6983 15.6321C21.8784 15.5787 22.1177 15.5725 24.3781 15.5622L26.8602 15.5509L26.848 14.2726C26.8362 13.0452 26.8327 12.985 26.7599 12.7631C26.4432 11.7968 25.6818 11.153 24.7117 11.031C24.3707 10.9882 12.4171 10.9904 12.084 11.0334ZM21.9092 16.5958C21.2064 16.8127 20.7629 17.5199 20.8843 18.2297C20.9802 18.7902 21.3779 19.2388 21.9224 19.4009C22.0641 19.4431 22.4479 19.4505 24.4723 19.4505H26.8554V17.9975V16.5444L24.4581 16.5467C22.4879 16.5486 22.0338 16.5573 21.9092 16.5958ZM23.218 17.5867C23.3814 17.7091 23.4359 17.8118 23.4359 17.9975C23.4359 18.1831 23.3814 18.2859 23.218 18.4082C23.1402 18.4664 23.0686 18.478 22.7246 18.4878C22.4998 18.4942 22.2638 18.4834 22.1899 18.4635C21.8402 18.3691 21.716 17.9245 21.9663 17.6627C22.0971 17.5259 22.2022 17.504 22.6928 17.5118C23.0736 17.5177 23.1382 17.527 23.218 17.5867Z" fill="white"/>
<defs>
<filter id="filter0_b_396_1820" x="-12.56" y="-12.56" width="61.2333" height="61.2343" filterUnits="userSpaceOnUse" color-interpolation-filters="sRGB">
<feFlood flood-opacity="0" result="BackgroundImageFix"/>
<feGaussianBlur in="BackgroundImageFix" stdDeviation="6.28"/>
<feComposite in2="SourceAlpha" operator="in" result="effect1_backgroundBlur_396_1820"/>
<feBlend mode="normal" in="SourceGraphic" in2="effect1_backgroundBlur_396_1820" result="shape"/>
</filter>
</defs>
</svg>
