<svg width="24" height="24" viewBox="0 0 24 24" fill="none" xmlns="http://www.w3.org/2000/svg">
<path d="M6.90391 20.6C8.40391 21.5 10.2039 22 12.0039 22C17.5039 22 22.0039 17.5 22.0039 12C22.0039 6.5 17.5039 2 12.0039 2C6.50391 2 2.00391 6.5 2.00391 12C2.00391 13.8 2.50391 15.5 3.30391 17L2.22954 21.1322C2.12979 21.5159 2.48491 21.8626 2.86608 21.7537L6.90391 20.6Z" fill="#4AE93C"/>
<path d="M16.5039 14.8485C16.5039 15.0105 16.4679 15.177 16.3912 15.339C16.3146 15.501 16.2155 15.654 16.0848 15.798C15.8639 16.041 15.6206 16.2165 15.3457 16.329C15.0753 16.4415 14.7823 16.5 14.4669 16.5C14.0072 16.5 13.5159 16.392 12.9976 16.1715C12.4794 15.951 11.9611 15.654 11.4473 15.2805C10.929 14.9025 10.4378 14.484 9.9691 14.0205C9.50491 13.5525 9.08578 13.062 8.71172 12.549C8.34216 12.036 8.04472 11.523 7.82839 11.0145C7.61207 10.5015 7.50391 10.011 7.50391 9.543C7.50391 9.237 7.55799 8.9445 7.66615 8.6745C7.77431 8.4 7.94557 8.148 8.18443 7.923C8.47286 7.6395 8.78833 7.5 9.12183 7.5C9.24802 7.5 9.37421 7.527 9.48688 7.581C9.60406 7.635 9.70771 7.716 9.78883 7.833L10.8344 9.3045C10.9155 9.417 10.9741 9.5205 11.0147 9.6195C11.0552 9.714 11.0778 9.8085 11.0778 9.894C11.0778 10.002 11.0462 10.11 10.9831 10.2135C10.9245 10.317 10.8389 10.425 10.7307 10.533L10.3882 10.8885C10.3387 10.938 10.3161 10.9965 10.3161 11.0685C10.3161 11.1045 10.3206 11.136 10.3296 11.172C10.3432 11.208 10.3567 11.235 10.3657 11.262C10.4468 11.4105 10.5865 11.604 10.7848 11.838C10.9876 12.072 11.204 12.3105 11.4383 12.549C11.6817 12.7875 11.916 13.008 12.1549 13.2105C12.3892 13.4085 12.583 13.5435 12.7363 13.6245C12.7588 13.6335 12.7858 13.647 12.8174 13.6605C12.8534 13.674 12.8895 13.6785 12.93 13.6785C13.0067 13.6785 13.0652 13.6515 13.1148 13.602L13.4573 13.2645C13.57 13.152 13.6782 13.0665 13.7818 13.0125C13.8855 12.9495 13.9891 12.918 14.1018 12.918C14.1874 12.918 14.2776 12.936 14.3767 12.9765C14.4759 13.017 14.5795 13.0755 14.6922 13.152L16.1839 14.2095C16.3011 14.2905 16.3822 14.385 16.4318 14.4975C16.4769 14.61 16.5039 14.7225 16.5039 14.8485Z" fill="white"/>
</svg>
