<svg width="67" height="25" viewBox="0 0 67 25" fill="none" xmlns="http://www.w3.org/2000/svg">
<rect x="0.800781" y="0.960938" width="64.86" height="23" rx="7.5" stroke="#FBA424"/>
<path d="M28.3511 16.0309C27.8911 16.0309 27.4778 15.9509 27.1111 15.7909C26.7511 15.6243 26.4678 15.3976 26.2611 15.1109C26.0544 14.8176 25.9478 14.4809 25.9411 14.1009H26.9111C26.9444 14.4276 27.0778 14.7043 27.3111 14.9309C27.5511 15.1509 27.8978 15.2609 28.3511 15.2609C28.7844 15.2609 29.1244 15.1543 29.3711 14.9409C29.6244 14.7209 29.7511 14.4409 29.7511 14.1009C29.7511 13.8343 29.6778 13.6176 29.5311 13.4509C29.3844 13.2843 29.2011 13.1576 28.9811 13.0709C28.7611 12.9843 28.4644 12.8909 28.0911 12.7909C27.6311 12.6709 27.2611 12.5509 26.9811 12.4309C26.7078 12.3109 26.4711 12.1243 26.2711 11.8709C26.0778 11.6109 25.9811 11.2643 25.9811 10.8309C25.9811 10.4509 26.0778 10.1143 26.2711 9.82094C26.4644 9.5276 26.7344 9.30094 27.0811 9.14094C27.4344 8.98094 27.8378 8.90094 28.2911 8.90094C28.9444 8.90094 29.4778 9.06427 29.8911 9.39094C30.3111 9.7176 30.5478 10.1509 30.6011 10.6909H29.6011C29.5678 10.4243 29.4278 10.1909 29.1811 9.99094C28.9344 9.78427 28.6078 9.68094 28.2011 9.68094C27.8211 9.68094 27.5111 9.78094 27.2711 9.98094C27.0311 10.1743 26.9111 10.4476 26.9111 10.8009C26.9111 11.0543 26.9811 11.2609 27.1211 11.4209C27.2678 11.5809 27.4444 11.7043 27.6511 11.7909C27.8644 11.8709 28.1611 11.9643 28.5411 12.0709C29.0011 12.1976 29.3711 12.3243 29.6511 12.4509C29.9311 12.5709 30.1711 12.7609 30.3711 13.0209C30.5711 13.2743 30.6711 13.6209 30.6711 14.0609C30.6711 14.4009 30.5811 14.7209 30.4011 15.0209C30.2211 15.3209 29.9544 15.5643 29.6011 15.7509C29.2478 15.9376 28.8311 16.0309 28.3511 16.0309ZM35.0302 10.3809C35.4436 10.3809 35.8169 10.4709 36.1502 10.6509C36.4836 10.8243 36.7436 11.0876 36.9302 11.4409C37.1236 11.7943 37.2202 12.2243 37.2202 12.7309V15.9609H36.3202V12.8609C36.3202 12.3143 36.1836 11.8976 35.9102 11.6109C35.6369 11.3176 35.2636 11.1709 34.7902 11.1709C34.3102 11.1709 33.9269 11.3209 33.6402 11.6209C33.3602 11.9209 33.2202 12.3576 33.2202 12.9309V15.9609H32.3102V8.56094H33.2202V11.2609C33.4002 10.9809 33.6469 10.7643 33.9602 10.6109C34.2802 10.4576 34.6369 10.3809 35.0302 10.3809ZM38.6667 13.2009C38.6667 12.6409 38.7801 12.1509 39.0067 11.7309C39.2334 11.3043 39.5434 10.9743 39.9367 10.7409C40.3367 10.5076 40.7801 10.3909 41.2667 10.3909C41.7467 10.3909 42.1634 10.4943 42.5167 10.7009C42.8701 10.9076 43.1334 11.1676 43.3067 11.4809V10.4809H44.2267V15.9609H43.3067V14.9409C43.1267 15.2609 42.8567 15.5276 42.4967 15.7409C42.1434 15.9476 41.7301 16.0509 41.2567 16.0509C40.7701 16.0509 40.3301 15.9309 39.9367 15.6909C39.5434 15.4509 39.2334 15.1143 39.0067 14.6809C38.7801 14.2476 38.6667 13.7543 38.6667 13.2009ZM43.3067 13.2109C43.3067 12.7976 43.2234 12.4376 43.0567 12.1309C42.8901 11.8243 42.6634 11.5909 42.3767 11.4309C42.0967 11.2643 41.7867 11.1809 41.4467 11.1809C41.1067 11.1809 40.7967 11.2609 40.5167 11.4209C40.2367 11.5809 40.0134 11.8143 39.8467 12.1209C39.6801 12.4276 39.5967 12.7876 39.5967 13.2009C39.5967 13.6209 39.6801 13.9876 39.8467 14.3009C40.0134 14.6076 40.2367 14.8443 40.5167 15.0109C40.7967 15.1709 41.1067 15.2509 41.4467 15.2509C41.7867 15.2509 42.0967 15.1709 42.3767 15.0109C42.6634 14.8443 42.8901 14.6076 43.0567 14.3009C43.2234 13.9876 43.3067 13.6243 43.3067 13.2109ZM46.9745 11.3709C47.1345 11.0576 47.3612 10.8143 47.6545 10.6409C47.9545 10.4676 48.3179 10.3809 48.7445 10.3809V11.3209H48.5045C47.4845 11.3209 46.9745 11.8743 46.9745 12.9809V15.9609H46.0645V10.4809H46.9745V11.3709ZM55.095 13.0109C55.095 13.1843 55.085 13.3676 55.065 13.5609H50.685C50.7183 14.1009 50.9017 14.5243 51.235 14.8309C51.575 15.1309 51.985 15.2809 52.465 15.2809C52.8583 15.2809 53.185 15.1909 53.445 15.0109C53.7117 14.8243 53.8983 14.5776 54.005 14.2709H54.985C54.8383 14.7976 54.545 15.2276 54.105 15.5609C53.665 15.8876 53.1183 16.0509 52.465 16.0509C51.945 16.0509 51.4783 15.9343 51.065 15.7009C50.6583 15.4676 50.3383 15.1376 50.105 14.7109C49.8717 14.2776 49.755 13.7776 49.755 13.2109C49.755 12.6443 49.8683 12.1476 50.095 11.7209C50.3217 11.2943 50.6383 10.9676 51.045 10.7409C51.4583 10.5076 51.9317 10.3909 52.465 10.3909C52.985 10.3909 53.445 10.5043 53.845 10.7309C54.245 10.9576 54.5517 11.2709 54.765 11.6709C54.985 12.0643 55.095 12.5109 55.095 13.0109ZM54.155 12.8209C54.155 12.4743 54.0783 12.1776 53.925 11.9309C53.7717 11.6776 53.5617 11.4876 53.295 11.3609C53.035 11.2276 52.745 11.1609 52.425 11.1609C51.965 11.1609 51.5717 11.3076 51.245 11.6009C50.925 11.8943 50.7417 12.3009 50.695 12.8209H54.155Z" fill="#071973"/>
<path d="M13.6274 16.8645C14.3958 17.3256 15.318 17.5817 16.2401 17.5817C19.0577 17.5817 21.363 15.2764 21.363 12.4588C21.363 9.64124 19.0577 7.33594 16.2401 7.33594C13.4225 7.33594 11.1172 9.64124 11.1172 12.4588C11.1172 13.3809 11.3733 14.2518 11.7832 15.0203L11.3428 16.7139C11.2431 17.0976 11.5982 17.4443 11.9794 17.3354L13.6274 16.8645Z" fill="#4AE93C"/>
<path d="M18.5442 13.9208C18.5442 14.0038 18.5257 14.0891 18.4865 14.1721C18.4472 14.2551 18.3964 14.3334 18.3295 14.4072C18.2163 14.5317 18.0917 14.6216 17.9508 14.6792C17.8123 14.7369 17.6622 14.7668 17.5006 14.7668C17.2651 14.7668 17.0135 14.7115 16.748 14.5986C16.4825 14.4856 16.217 14.3334 15.9538 14.1421C15.6883 13.9485 15.4366 13.7341 15.1965 13.4966C14.9587 13.2569 14.744 13.0056 14.5523 12.7428C14.363 12.48 14.2106 12.2172 14.0998 11.9567C13.989 11.6939 13.9336 11.4426 13.9336 11.2029C13.9336 11.0461 13.9613 10.8963 14.0167 10.7579C14.0721 10.6173 14.1599 10.4882 14.2822 10.3729C14.43 10.2277 14.5916 10.1562 14.7624 10.1562C14.8271 10.1562 14.8917 10.1701 14.9494 10.1977C15.0095 10.2254 15.0626 10.2669 15.1041 10.3268L15.6398 11.0807C15.6813 11.1383 15.7113 11.1913 15.7321 11.242C15.7529 11.2905 15.7644 11.3389 15.7644 11.3827C15.7644 11.438 15.7483 11.4933 15.716 11.5463C15.6859 11.5994 15.6421 11.6547 15.5867 11.71L15.4112 11.8921C15.3858 11.9175 15.3743 11.9475 15.3743 11.9844C15.3743 12.0028 15.3766 12.0189 15.3812 12.0374C15.3881 12.0558 15.395 12.0696 15.3997 12.0835C15.4412 12.1596 15.5128 12.2587 15.6144 12.3786C15.7183 12.4984 15.8291 12.6206 15.9491 12.7428C16.0738 12.865 16.1939 12.9779 16.3162 13.0817C16.4363 13.1831 16.5356 13.2523 16.6141 13.2938C16.6256 13.2984 16.6395 13.3053 16.6556 13.3122C16.6741 13.3191 16.6926 13.3214 16.7133 13.3214C16.7526 13.3214 16.7826 13.3076 16.808 13.2822L16.9835 13.1093C17.0412 13.0517 17.0966 13.0079 17.1497 12.9802C17.2028 12.948 17.2559 12.9318 17.3136 12.9318C17.3575 12.9318 17.4037 12.941 17.4545 12.9618C17.5052 12.9825 17.5583 13.0125 17.6161 13.0517L18.3803 13.5934C18.4403 13.6349 18.4819 13.6834 18.5072 13.741C18.5303 13.7986 18.5442 13.8563 18.5442 13.9208Z" fill="white"/>
</svg>
