<svg width="25" height="25" viewBox="0 0 25 25" fill="none" xmlns="http://www.w3.org/2000/svg">
<path d="M8.30672 11.369C8.36322 11.311 8.57656 11.063 8.7753 10.859C9.94042 9.576 12.9799 7.476 14.5707 6.835C14.8123 6.732 15.4231 6.514 15.7495 6.5C16.0622 6.5 16.3603 6.572 16.6448 6.718C16.9994 6.922 17.2838 7.243 17.4397 7.622C17.54 7.885 17.6959 8.672 17.6959 8.686C17.8518 9.547 17.9375 10.946 17.9375 12.492C17.9375 13.965 17.8518 15.307 17.7242 16.181C17.7095 16.195 17.5537 17.173 17.3832 17.508C17.0705 18.12 16.4597 18.5 15.806 18.5H15.7495C15.3238 18.485 14.4285 18.105 14.4285 18.091C12.9234 17.449 9.95406 15.452 8.76069 14.125C8.76069 14.125 8.42459 13.784 8.27846 13.571C8.05051 13.265 7.9375 12.886 7.9375 12.507C7.9375 12.084 8.06512 11.69 8.30672 11.369Z" fill="white"/>
</svg>
