<svg width="13" height="12" viewBox="0 0 13 12" fill="none" xmlns="http://www.w3.org/2000/svg">
<path d="M8.79385 5.83052C8.79385 6.98552 7.86052 7.91885 6.70552 7.91885C5.55052 7.91885 4.61719 6.98552 4.61719 5.83052C4.61719 4.67552 5.55052 3.74219 6.70552 3.74219C7.86052 3.74219 8.79385 4.67552 8.79385 5.83052Z" stroke="white" stroke-linecap="round" stroke-linejoin="round"/>
<path d="M6.70792 10.6542C8.76708 10.6542 10.6863 9.44083 12.0221 7.34083C12.5471 6.51833 12.5471 5.13583 12.0221 4.31333C10.6863 2.21333 8.76708 1 6.70792 1C4.64875 1 2.72958 2.21333 1.39375 4.31333C0.86875 5.13583 0.86875 6.51833 1.39375 7.34083C2.72958 9.44083 4.64875 10.6542 6.70792 10.6542Z" stroke="white" stroke-linecap="round" stroke-linejoin="round"/>
</svg>
